<?xml version="1.0" encoding="utf-8"?>
<!-- Generator: Adobe Illustrator 16.0.3, SVG Export Plug-In . SVG Version: 6.00 Build 0)  -->
<!DOCTYPE svg PUBLIC "-//W3C//DTD SVG 1.1//EN" "http://www.w3.org/Graphics/SVG/1.1/DTD/svg11.dtd">
<svg version="1.1" id="圖層_1" xmlns="http://www.w3.org/2000/svg" xmlns:xlink="http://www.w3.org/1999/xlink" x="0px" y="0px"
	 width="50px" height="50px" viewBox="0 0 50 50" enable-background="new 0 0 50 50" xml:space="preserve">
<path fill="#FF8674" d="M25,2.995c1.267,0,3.093-2.835,4.341-2.615c1.248,0.22,1.994,3.509,3.185,3.942s3.877-1.606,4.974-0.973
	s0.673,3.979,1.644,4.794c0.97,0.814,4.116-0.114,5.007,0.787c0.891,0.901-0.728,3.97-0.095,5.067s4.002,1.261,4.436,2.452
	c0.434,1.191-2.042,3.482-1.822,4.73C46.891,22.427,50,23.733,50,25s-3.109,2.573-3.33,3.821c-0.22,1.248,2.255,3.539,1.822,4.73
	c-0.434,1.19-3.802,1.354-4.436,2.452s0.909,4.097,0.095,5.067s-3.96,0.074-5.007,0.787c-1.047,0.714-0.547,4.161-1.644,4.794
	c-1.098,0.634-3.783-1.407-4.974-0.973s-1.938,3.723-3.185,3.942c-1.248,0.22-3.074-2.615-4.341-2.615s-3.093,2.835-4.341,2.615
	s-1.995-3.509-3.185-3.942c-1.191-0.433-3.877,1.607-4.974,0.973c-1.098-0.634-0.674-3.979-1.644-4.794
	c-0.971-0.814-4.193,0.184-5.007-0.787s0.728-3.97,0.095-5.067s-4.002-1.261-4.436-2.452c-0.434-1.191,2.042-3.482,1.822-4.73
	C3.109,27.573,0,26.267,0,25s3.109-2.573,3.33-3.821c0.22-1.248-2.255-3.539-1.822-4.73c0.434-1.19,3.802-1.354,4.436-2.452
	S4.958,9.831,5.849,8.93c0.891-0.901,4.036,0.027,5.007-0.787c0.97-0.814,0.547-4.161,1.644-4.794s3.783,1.406,4.974,0.973
	c1.19-0.433,1.938-3.722,3.185-3.942C21.907,0.16,23.733,2.995,25,2.995z"/>
</svg>
