<svg xmlns="http://www.w3.org/2000/svg" viewBox="0 0 32 32" enable-background="new 0 0 32 32" x="0px" y="0px"><g><path d="M29.5 23h-23c-1.378 0-2.5-1.121-2.5-2.5v-13c0-1.378 1.122-2.5 2.5-2.5h23c1.379 0 2.5 1.122 2.5 2.5v13c0 1.379-1.121 2.5-2.5 2.5zm-23-16c-.275 0-.5.224-.5.5v13c0 .275.224.5.5.5h23c.275 0 .5-.225.5-.5v-13c0-.275-.225-.5-.5-.5h-23zM25.503 27h-23.006c-1.377 0-2.497-1.12-2.497-2.497v-13.006c0-1.377 1.12-2.497 2.497-2.497h1.503c.552 0 1 .448 1 1s-.448 1-1 1h-1.503c-.274 0-.497.223-.497.497v13.006c0 .274.223.497.497.497h23.006c.274 0 .497-.223.497-.497v-2.503c0-.553.447-1 1-1s1 .447 1 1v2.503c0 1.377-1.12 2.497-2.497 2.497zM27 15c-.26 0-.521-.11-.71-.29-.181-.19-.29-.45-.29-.71 0-.26.109-.52.29-.71.38-.37 1.04-.37 1.42 0 .18.19.29.45.29.71 0 .26-.11.52-.29.71-.19.18-.45.29-.71.29zM9 15c-.26 0-.52-.11-.71-.29-.18-.19-.29-.45-.29-.71 0-.26.11-.52.29-.71.38-.37 1.04-.37 1.42 0 .18.19.29.45.29.71 0 .26-.11.52-.29.71-.19.18-.45.29-.71.29zM19.917 19h-4.917c-.552 0-1-.447-1-1s.448-1 1-1h4.917c.598 0 1.083-.449 1.083-1s-.485-1-1.083-1h-3.917c-1.7 0-3.083-1.346-3.083-3s1.383-3 3.083-3h5c.553 0 1 .448 1 1s-.447 1-1 1h-5c-.598 0-1.083.449-1.083 1s.486 1 1.083 1h3.917c1.7 0 3.083 1.346 3.083 3s-1.383 3-3.083 3zM17 8h2v12h-2z"/></g></svg>