<svg xmlns:dc="http://purl.org/dc/elements/1.1/" xmlns:cc="http://creativecommons.org/ns#" xmlns:rdf="http://www.w3.org/1999/02/22-rdf-syntax-ns#" xmlns:svg="http://www.w3.org/2000/svg" xmlns="http://www.w3.org/2000/svg" xmlns:sodipodi="http://sodipodi.sourceforge.net/DTD/sodipodi-0.dtd" xmlns:inkscape="http://www.inkscape.org/namespaces/inkscape" version="1.1" x="0px" y="0px" viewBox="0 0 100 100"><g transform="translate(0,-952.36218)"><path style="text-indent:0;text-transform:none;direction:ltr;block-progression:tb;baseline-shift:baseline;color:#000000;enable-background:accumulate;" d="m 45.96899,958.36896 c -0.2649,0.002 -0.5153,0.0441 -0.7188,0.125 -13.7666,5.53564 -27.8378,11.14907 -39.6562011,15.875 -0.9057,0.18773 -1.613,1.07537 -1.5938,2 l 0,49.99994 c -0.01,0.8632 0.6091,1.6947 1.4375,1.9375 13.7541011,6.1528 27.7061011,12.4532 39.4687011,17.75 0.6876,0.3817 1.5977,0.4259 2.25,-0.031 l 20.687603,-9.3125 c 2.9475,3.4519 7.3108,5.6563 12.1874,5.6563 8.8111,0 15.9688,-7.1576 15.9688,-15.9688 0,-5.9054 -3.2267,-11.0936 -8,-13.875 l 0,-36.15624 c 0.011,-0.89759 -0.6587,-1.75836 -1.5312,-1.96875 l -39.687603,-15.875 c -0.2686,-0.11883 -0.5477,-0.15794 -0.8124,-0.15625 z m 0.031,4.125 34.593803,13.84375 -14.5936,5.84375 -34.593803,-13.8125 14.5938,-5.875 z m -20,8.03125 34.594003,13.84375 -14.593803,5.8125 -34.593801,-13.8125 14.593801,-5.84375 z m -18.0000011,8.78125 36.0000011,14.40625 0,47.53119 -36.0000011,-16.1875 0,-45.74994 z m 76.0000041,0 0,31.56244 c -1.2694,-0.328 -2.5987,-0.5 -3.9688,-0.5 -8.8112,0 -16.0312,7.2202 -16.0312,16.0313 0,2.4806 0.6061,4.8106 1.625,6.9062 l -17.625003,7.9375 0,-47.53119 16.000003,-6.40625 0,13.06254 c -0.015,1.0566 0.9433,2.0312 2,2.0312 1.0567,0 2.0149,-0.9746 2,-2.0312 l 0,-14.65629 16,-6.40625 z m -3.9686,35.06244 c 6.6498,0 11.9688,5.3815 11.9688,12.0313 0,6.6499 -5.319,11.9687 -11.9688,11.9687 -6.6498,0 -12,-5.3188 -12,-11.9687 0,-6.6498 5.3502,-12.0313 12,-12.0313 z m 6.8126,6 c -0.5374,0.037 -1.057,0.3032 -1.4063,0.75 l -6.8125,8.5313 -5.4688,-3.9063 c -0.8167,-0.6426 -2.1445,-0.4575 -2.7812,0.4375 -0.6367,0.8948 -0.4721,2.2458 0.4688,2.8125 l 7,5 c 0.8367,0.6124 2.0866,0.4105 2.7187,-0.375 l 8,-10 c 0.5414,-0.7502 0.6622,-1.8816 -0.1875,-2.6875 -0.4389,-0.4082 -0.9939,-0.5997 -1.5312,-0.5625 z" fill="#000000" fill-opacity="1" stroke="none" marker="none" visibility="visible" display="inline" overflow="visible"/></g></svg>