<svg xmlns="http://www.w3.org/2000/svg" xmlns:xlink="http://www.w3.org/1999/xlink" version="1.1" x="0px" y="0px" viewBox="0 0 100 100" style="enable-background:new 0 0 100 100;" xml:space="preserve"><g><path d="M87.622,23.649c-0.016-0.078-0.045-0.149-0.068-0.224c-0.02-0.065-0.034-0.133-0.06-0.195   c-0.029-0.07-0.07-0.132-0.106-0.198c-0.033-0.063-0.062-0.129-0.102-0.188c-0.033-0.049-0.076-0.09-0.111-0.137   c-0.054-0.067-0.103-0.137-0.163-0.198L68.157,3.658c-0.065-0.065-0.14-0.117-0.212-0.173c-0.041-0.033-0.078-0.071-0.122-0.101   c-0.063-0.042-0.131-0.071-0.196-0.106c-0.064-0.034-0.123-0.073-0.189-0.101c-0.067-0.028-0.137-0.042-0.207-0.063   c-0.069-0.022-0.139-0.05-0.213-0.065c-0.145-0.029-0.294-0.044-0.443-0.044H14.571c-1.236,0-2.238,1.002-2.238,2.238v89.518   c0,1.235,1.002,2.238,2.238,2.238h70.857c1.235,0,2.238-1.003,2.238-2.238V24.093C87.667,23.943,87.651,23.794,87.622,23.649z    M68.813,10.644l11.212,11.211H68.813V10.644z M16.81,92.521V7.479h47.526v16.614c0,1.236,1.002,2.238,2.238,2.238H83.19v66.189   H16.81z"/><path d="M72.32,64.977H27.679c-1.235,0-2.238,1.003-2.238,2.238c0,1.236,1.002,2.238,2.238,2.238H72.32   c1.236,0,2.238-1.002,2.238-2.238C74.559,65.979,73.557,64.977,72.32,64.977z"/><path d="M72.32,78.988H27.679c-1.235,0-2.238,1.003-2.238,2.238s1.002,2.238,2.238,2.238H72.32c1.236,0,2.238-1.003,2.238-2.238   S73.557,78.988,72.32,78.988z"/><path d="M35.874,43.499c0-1.236-1.002-2.238-2.238-2.238c-1.235,0-2.238,1.002-2.238,2.238c0,4.857,3.978,8.916,9.236,9.828v3.428   c0,1.235,1.002,2.238,2.238,2.238c1.237,0,2.238-1.003,2.238-2.238v-3.428c5.263-0.911,9.244-4.97,9.244-9.828   c0-5.154-4.647-7.478-9.244-9.336V22.677c2.769,0.741,4.768,2.813,4.768,5.251c0,1.236,1.002,2.238,2.238,2.238   c1.236,0,2.238-1.002,2.238-2.238c0-4.858-3.98-8.917-9.244-9.828v-3.432c0-1.236-1-2.238-2.238-2.238   c-1.236,0-2.238,1.002-2.238,2.238V18.1c-5.258,0.913-9.236,4.971-9.236,9.828c0,5.115,4.652,7.418,9.236,9.268v11.552   C37.871,48.006,35.874,45.936,35.874,43.499z M49.877,43.499c0,2.438-1.999,4.509-4.768,5.25v-9.721   C48.069,40.352,49.877,41.619,49.877,43.499z M35.874,27.928c0-2.438,1.997-4.508,4.76-5.25v9.655   C37.682,31.018,35.874,29.768,35.874,27.928z"/></g></svg>