<svg xmlns:dc="http://purl.org/dc/elements/1.1/" xmlns:cc="http://creativecommons.org/ns#" xmlns:rdf="http://www.w3.org/1999/02/22-rdf-syntax-ns#" xmlns:svg="http://www.w3.org/2000/svg" xmlns="http://www.w3.org/2000/svg" xmlns:sodipodi="http://sodipodi.sourceforge.net/DTD/sodipodi-0.dtd" xmlns:inkscape="http://www.inkscape.org/namespaces/inkscape" version="1.1" x="0px" y="0px" viewBox="0 0 100 100"><g transform="translate(0,-952.36218)"><path style="font-size:medium;font-style:normal;font-variant:normal;font-weight:normal;font-stretch:normal;text-indent:0;text-align:start;text-decoration:none;line-height:normal;letter-spacing:normal;word-spacing:normal;text-transform:none;direction:ltr;block-progression:tb;writing-mode:lr-tb;text-anchor:start;baseline-shift:baseline;opacity:1;color:#000000;fill:#000000;fill-opacity:1;stroke:none;stroke-width:6;marker:none;visibility:visible;display:inline;overflow:visible;enable-background:accumulate;font-family:Sans;-inkscape-font-specification:Sans" d="m 34,5 c -4.934107,0 -9,4.06589 -9,9 l 0,72 c 0,4.9341 4.065893,9 9,9 l 32,0 c 4.934107,0 9,-4.0659 9,-9 L 75,14 C 75,9.06589 70.934107,5 66,5 z m 0,6 32,0 c 1.71389,0 3,1.28611 3,3 l 0,1 -38,0 0,-1 c 0,-1.71389 1.28611,-3 3,-3 z m -3,10 38,0 0,50 -38,0 z m 0,56 38,0 0,9 c 0,1.7139 -1.28611,3 -3,3 l -32,0 c -1.71389,0 -3,-1.2861 -3,-3 z m 11.6875,3 c -1.570984,0.08155 -2.926091,1.585307 -2.84427,3.156277 C 39.925051,84.727247 41.429044,86.082094 43,86 l 14,0 c 1.584938,0.02241 3.042726,-1.414904 3.042726,-3 0,-1.585096 -1.457788,-3.022415 -3.042726,-3 l -14,0 c -0.104072,-0.0054 -0.208428,-0.0054 -0.3125,0 z" transform="translate(0,952.36218)"/></g></svg>