<svg xmlns="http://www.w3.org/2000/svg" xmlns:xlink="http://www.w3.org/1999/xlink" version="1.1" x="0px" y="0px" viewBox="0 0 100 100" style="enable-background:new 0 0 100 100;" xml:space="preserve"><g><path d="M73.2,41.2c0-0.1,0-0.1,0-0.2c0-0.2-0.1-0.3-0.2-0.5c0,0,0-0.1,0-0.1c-0.1-0.2-0.2-0.3-0.3-0.5c0,0-0.1-0.1-0.1-0.1   c-0.1-0.1-0.2-0.2-0.3-0.3c0,0-0.1,0-0.1-0.1c0,0-0.1,0-0.1,0c0,0-0.1-0.1-0.1-0.1L45.6,26.9c-0.7-0.3-1.5-0.3-2.2,0L17.1,39.5   c0,0-0.1,0.1-0.1,0.1c0,0-0.1,0-0.1,0c0,0-0.1,0-0.1,0.1c-0.1,0.1-0.2,0.2-0.3,0.3c0,0-0.1,0.1-0.1,0.1c-0.1,0.1-0.3,0.3-0.3,0.5   c0,0,0,0,0,0.1c-0.1,0.1-0.1,0.3-0.2,0.5c0,0.1,0,0.1,0,0.2c0,0.1-0.1,0.3-0.1,0.4c0,0,0,0.1,0,0.1v36.3c0,0.9,0.5,1.8,1.3,2.2   l26.3,14c0.1,0.1,0.2,0.1,0.3,0.1c0.1,0,0.1,0.1,0.2,0.1c0.2,0.1,0.4,0.1,0.6,0.1s0.4,0,0.6-0.1c0.1,0,0.1-0.1,0.2-0.1   c0.1,0,0.2-0.1,0.3-0.1l26.3-14c0.8-0.4,1.3-1.3,1.3-2.2V41.7c0,0,0-0.1,0-0.1C73.3,41.5,73.3,41.3,73.2,41.2z M44.5,31.9l20.8,10   l-7.6,4.1L37.3,35.3L44.5,31.9z M44.5,52.9L23.7,41.8l8-3.8l20.6,10.7L44.5,52.9z M20.6,45.9L42,57.2v30.7L20.6,76.6V45.9z    M68.3,76.6L47,87.9V57.2l21.3-11.3V76.6z"/><path d="M82.9,27.4c-2.5-8-8.1-14.6-15.5-18.4c-7.5-3.9-16-4.6-24-2.1C37.2,8.9,32,12.5,28.1,17.5l-1.4-4.3l-4.8,1.5l3.2,10   c0.3,1.1,1.3,1.7,2.4,1.7c0.3,0,0.5,0,0.8-0.1l10.4-3.3l-1.5-4.8l-4.2,1.3c7.8-8.9,21.1-11.8,32.1-6c6.3,3.3,10.9,8.8,13.1,15.5   c2.1,6.7,1.5,13.9-1.7,20.2l4.4,2.3C84.7,44,85.4,35.4,82.9,27.4z"/></g></svg>