<svg xmlns:dc="http://purl.org/dc/elements/1.1/" xmlns:cc="http://creativecommons.org/ns#" xmlns:rdf="http://www.w3.org/1999/02/22-rdf-syntax-ns#" xmlns:svg="http://www.w3.org/2000/svg" xmlns="http://www.w3.org/2000/svg" xmlns:sodipodi="http://sodipodi.sourceforge.net/DTD/sodipodi-0.dtd" xmlns:inkscape="http://www.inkscape.org/namespaces/inkscape" viewBox="0 0 8.4666665 10.583333625" version="1.1" x="0px" y="0px"><g transform="translate(0,-288.53332)"><path style="color:#000000;font-style:normal;font-variant:normal;font-weight:normal;font-stretch:normal;font-size:medium;line-height:normal;font-family:sans-serif;text-indent:0;text-align:start;text-decoration:none;text-decoration-line:none;text-decoration-style:solid;text-decoration-color:#000000;letter-spacing:normal;word-spacing:normal;text-transform:none;direction:ltr;block-progression:tb;writing-mode:lr-tb;baseline-shift:baseline;text-anchor:start;white-space:normal;clip-rule:nonzero;display:inline;overflow:visible;visibility:visible;opacity:1;isolation:auto;mix-blend-mode:normal;color-interpolation:sRGB;color-interpolation-filters:linearRGB;solid-color:#000000;solid-opacity:1;fill:#000000;fill-opacity:1;fill-rule:evenodd;stroke:none;stroke-width:0.26458335px;stroke-linecap:round;stroke-linejoin:round;stroke-miterlimit:4;stroke-dasharray:none;stroke-dashoffset:0;stroke-opacity:1;color-rendering:auto;image-rendering:auto;shape-rendering:auto;text-rendering:auto;enable-background:accumulate" d="m 1.5742188,290.7832 c -0.1639926,0.0194 -0.151448,0.26134 0.013672,0.26368 l 5.0273438,0 c 0.074628,0 0.1308586,0.0582 0.1308594,0.13281 l 0,0.99023 c 0,0.17708 0.265625,0.17708 0.265625,0 l 0,-0.99023 c -2.1e-6,-0.21762 -0.1788653,-0.39649 -0.3964844,-0.39649 -1.6800511,0 -3.3619322,0 -5.0410158,0 z"/><path style="color:#000000;font-style:normal;font-variant:normal;font-weight:normal;font-stretch:normal;font-size:medium;line-height:normal;font-family:sans-serif;text-indent:0;text-align:start;text-decoration:none;text-decoration-line:none;text-decoration-style:solid;text-decoration-color:#000000;letter-spacing:normal;word-spacing:normal;text-transform:none;direction:ltr;block-progression:tb;writing-mode:lr-tb;baseline-shift:baseline;text-anchor:start;white-space:normal;clip-rule:nonzero;display:inline;overflow:visible;visibility:visible;opacity:1;isolation:auto;mix-blend-mode:normal;color-interpolation:sRGB;color-interpolation-filters:linearRGB;solid-color:#000000;solid-opacity:1;fill:#000000;fill-opacity:1;fill-rule:evenodd;stroke:none;stroke-width:0.26458335px;stroke-linecap:round;stroke-linejoin:round;stroke-miterlimit:4;stroke-dasharray:none;stroke-dashoffset:0;stroke-opacity:1;color-rendering:auto;image-rendering:auto;shape-rendering:auto;text-rendering:auto;enable-background:accumulate" d="m 1.4550781,290.12109 c -0.3637446,0 -0.66210935,0.29836 -0.66210935,0.66211 l 0,4.23242 c 0,0.36376 0.29836475,0.66211 0.66210935,0.66211 l 4.8945313,0 c 0.3637444,0 0.6621107,-0.29835 0.6621094,-0.66211 l 0,-0.86132 c 0,-0.17708 -0.265625,-0.17708 -0.265625,0 l 0,0.86132 c 8e-7,0.22077 -0.1757279,0.39649 -0.3964844,0.39649 l -4.8945313,0 c -0.2207568,0 -0.3964843,-0.17572 -0.3964843,-0.39649 l 0,-4.23242 c 0,-0.22076 0.1757275,-0.39843 0.3964843,-0.39843 l 5.5566407,0 c 0.2207565,0 0.3964843,0.17767 0.3964843,0.39843 l 0,3.97852 c -2.3e-6,0.10604 -0.059439,0.20256 -0.1542969,0.25 -0.1575218,0.0794 -0.038402,0.31573 0.1191407,0.23633 0.1839666,-0.092 0.3007767,-0.28063 0.3007812,-0.48633 l 0,-3.97852 c 0,-0.36375 -0.2983649,-0.66211 -0.6621093,-0.66211 z"/><path style="color:#000000;font-style:normal;font-variant:normal;font-weight:normal;font-stretch:normal;font-size:medium;line-height:normal;font-family:sans-serif;text-indent:0;text-align:start;text-decoration:none;text-decoration-line:none;text-decoration-style:solid;text-decoration-color:#000000;letter-spacing:normal;word-spacing:normal;text-transform:none;direction:ltr;block-progression:tb;writing-mode:lr-tb;baseline-shift:baseline;text-anchor:start;white-space:normal;clip-rule:nonzero;display:inline;overflow:visible;visibility:visible;opacity:1;isolation:auto;mix-blend-mode:normal;color-interpolation:sRGB;color-interpolation-filters:linearRGB;solid-color:#000000;solid-opacity:1;fill:#000000;fill-opacity:1;fill-rule:evenodd;stroke:none;stroke-width:0.26458335px;stroke-linecap:butt;stroke-linejoin:round;stroke-miterlimit:4;stroke-dasharray:none;stroke-dashoffset:0;stroke-opacity:1;color-rendering:auto;image-rendering:auto;shape-rendering:auto;text-rendering:auto;enable-background:accumulate" d="m 7.4921875,292.24609 -0.6386719,0.25586 -1.296875,0 c -0.3637485,0 -0.6621116,0.29837 -0.6621094,0.66211 l 0,0.002 c 0.00451,0.37856 0.3265449,0.65328 0.6601563,0.6582 l 0.00195,0 1.3222656,0 c 0.016634,4.3e-4 0.0332,-0.002 0.048828,-0.008 l 0.6621094,-0.26563 -0.097656,-0.24609 -0.6386719,0.25586 -1.2949218,0 -0.00195,0 c -0.1830359,-0.004 -0.3938239,-0.17527 -0.3964844,-0.39844 8.634e-4,-0.21999 0.1762729,-0.39453 0.3964844,-0.39453 l 1.3222656,0 c 0.016763,-2.1e-4 0.033333,-0.004 0.048828,-0.01 l 0.6621094,-0.26562 -0.097656,-0.2461 z"/><path d="m 5.6885415,293.16353 c -9e-7,0.0731 -0.05923,0.13229 -0.1322917,0.13229 -0.073062,0 -0.1322908,-0.0592 -0.1322917,-0.13229 9e-7,-0.0731 0.05923,-0.13229 0.1322917,-0.13229 0.073062,0 0.1322908,0.0592 0.1322917,0.13229 z" style="opacity:1;fill:#000000;fill-opacity:1;stroke:none;stroke-width:1;stroke-linecap:round;stroke-linejoin:round;stroke-miterlimit:4;stroke-dasharray:none;stroke-opacity:1"/></g></svg>