<svg xmlns="http://www.w3.org/2000/svg" xmlns:xlink="http://www.w3.org/1999/xlink" version="1.1" x="0px" y="0px" viewBox="0 0 100 100" enable-background="new 0 0 100 100" xml:space="preserve"><path d="M26,26h-2c-1.104,0-2,0.895-2,2s0.896,2,2,2h2c1.104,0,2-0.895,2-2S27.104,26,26,26z M34,26h-2c-1.104,0-2,0.895-2,2  s0.896,2,2,2h2c1.105,0,2-0.895,2-2S35.105,26,34,26z M18,26h-2c-1.104,0-2,0.895-2,2s0.896,2,2,2h2c1.104,0,2-0.895,2-2  S19.104,26,18,26z M86,18H14c-4.411,0-8,3.589-8,8v52c0,4.412,3.589,8,8,8h72c4.412,0,8-3.588,8-8V26C94,21.589,90.412,18,86,18z   M90,78c0,2.205-1.795,4-4,4H14c-2.206,0-4-1.795-4-4V38h80V78z M90,34H10v-8c0-2.206,1.794-4,4-4h72c2.205,0,4,1.794,4,4V34z"/></svg>