<svg xmlns="http://www.w3.org/2000/svg" xmlns:xlink="http://www.w3.org/1999/xlink" version="1.1" x="0px" y="0px" viewBox="0 0 100 100" style="enable-background:new 0 0 100 100;" xml:space="preserve"><path d="M39,77.5c-3.9,0-7,3.1-7,7s3.1,7,7,7s7-3.1,7-7S42.9,77.5,39,77.5z M39,87.5c-1.7,0-3-1.3-3-3s1.3-3,3-3s3,1.3,3,3  S40.7,87.5,39,87.5z"/><path d="M68,77.5c-3.9,0-7,3.1-7,7s3.1,7,7,7s7-3.1,7-7S71.9,77.5,68,77.5z M68,87.5c-1.7,0-3-1.3-3-3s1.3-3,3-3s3,1.3,3,3  S69.7,87.5,68,87.5z"/><path d="M92,34.6c0,0,0-0.1,0-0.1c0,0,0,0,0-0.1c0-0.1,0-0.1,0-0.2c0-0.1,0-0.1,0-0.2c0-0.1,0-0.1-0.1-0.2c0-0.1,0-0.1-0.1-0.2  c0-0.1-0.1-0.1-0.1-0.2c0-0.1-0.1-0.1-0.1-0.2c0-0.1-0.1-0.1-0.1-0.1c0,0-0.1-0.1-0.1-0.1c0,0-0.1-0.1-0.1-0.1  c-0.1,0-0.1-0.1-0.2-0.1c-0.1,0-0.1-0.1-0.2-0.1c-0.1,0-0.1-0.1-0.2-0.1c0,0,0,0-0.1,0c0,0-0.1,0-0.1,0c-0.1,0-0.1,0-0.2,0  c-0.1,0-0.1,0-0.2,0c0,0-0.1,0-0.1,0h-5v-15c0-1.1-0.9-2-2-2H69v-5c0-1.1-0.9-2-2-2H43c-1.1,0-2,0.9-2,2v9H30c-1.1,0-2,0.9-2,2v11  h-3.4L21.9,22c-0.2-0.9-1-1.5-1.9-1.5H10c-1.1,0-2,0.9-2,2s0.9,2,2,2h8.4L30.1,71c0.2,0.9,1,1.5,1.9,1.5h46c0.9,0,1.6-0.6,1.9-1.4  l12-36c0,0,0-0.1,0-0.1c0-0.1,0-0.1,0-0.2C92,34.7,92,34.7,92,34.6z M81,19.5v13H69v-13H81z M45,12.5h20v5v15H45v-11V12.5z M32,23.5  h9v9h-9V23.5z M76.6,68.5h-43l-8-32H30h13h24h16h4.2L76.6,68.5z"/><path d="M55,44.5c-1.1,0-2,0.9-2,2v14c0,1.1,0.9,2,2,2s2-0.9,2-2v-14C57,45.4,56.1,44.5,55,44.5z"/><path d="M66,44.5c-1.1,0-2,0.9-2,2v14c0,1.1,0.9,2,2,2s2-0.9,2-2v-14C68,45.4,67.1,44.5,66,44.5z"/><path d="M44,44.5c-1.1,0-2,0.9-2,2v14c0,1.1,0.9,2,2,2s2-0.9,2-2v-14C46,45.4,45.1,44.5,44,44.5z"/></svg>