<svg xmlns="http://www.w3.org/2000/svg" width="425" height="425" viewBox="0 0 425.2 425.2"><style>.a{fill:#FFF;}.b{fill:#F9B80E;}</style><rect x="-38.4" y="-8.3" width="502" height="441.8" fill="#F5B117"/><path d="M191.1 28.8c0 0-45.5-3.5-80.2 17C62.1 74.7 27.9 148.7 31.6 218.1c3.7 69.4 71.3 204.5 245 160.6 0 0 123.6-13.9 112.9-139.4 -10.7-125.5-27.4-128.7-71.1-161.5C274.8 44.9 227.9 22 191.1 28.8z" class="a"/><path d="M247.8 210.6c-1.8 7-8.5 0.6-19.8 6.3 -13.1 6.5-24.2 25.9-24.2 25.9s-9.6-19.4 21.1-37C230.2 202.7 250.9 198.8 247.8 210.6z" class="b"/><path d="M228.2 218.9c0 0-8.4 3.8-16.3 14.8 0 0-1.5 31.9 33.7 32.5 0 0 28.6-3.4 29.3-24.7 0 0 6.5-26.8-25.4-37.2 0 0 3.8 9.5-3.4 11.8C241.3 217.8 237.2 213.2 228.2 218.9z" class="b"/><path d="M162.8 343.1c-0.2 0.1-0.4 0.1-0.7 0.1 -0.3 0-0.6 0-1-0.1 -0.7 0-1.1 0-1.2 0.2 -0.1 0.1-0.2 0.5-0.2 1.2 -0.1 1.1-0.1 1.6-0.1 1.6 0 0.2 0 0.6 0.1 1.1 0.1 0.5 0.1 0.9 0.1 1.1 0 0.3 0 0.6-0.1 1.1 0 0.5-0.1 0.9-0.1 1.1 0 0.6 0.1 1.7 0.4 3.2 0 0.3 0 0.5-0.2 0.7 -0.2 0.2-0.4 0.3-0.6 0.2 -0.3 0-0.5 0-0.5 0 -0.3 0-0.5-0.1-0.6-0.3 -0.1-0.2-0.2-0.4-0.1-0.6 0.2-1 0.2-2.4 0.2-4.2 0-2.4 0-3.9 0-4.4 0-0.1 0-0.4 0.1-0.9 0-0.2 0-0.4-0.2-0.6 -0.2-0.2-0.4-0.2-0.7-0.2 -1.1 0-1.9 0.1-2.2 0.1 -0.3 0-0.5 0-0.6-0.1 -0.2-0.1-0.2-0.2-0.1-0.4 0.1-0.2 0.2-0.4 0.4-0.5 0.2-0.2 0.5-0.2 0.7-0.2 0.9 0 2 0 3.5 0.1 1.6 0.1 2.8 0.1 3.4 0.1 0.3 0 0.5 0 0.6 0.1 0.2 0.1 0.2 0.2 0.2 0.3C163.1 343 163 343.1 162.8 343.1z" class="b"/><path d="M172.4 342.3c0 0 0.3 0.1 0.8 0.3 0.5 0.1 1 0.5 1.5 1.1 0.4 0.4 0.6 0.8 0.9 1.3 0.3 0.6 0.4 1.1 0.4 1.4 0 0.6-0.3 1.2-0.8 1.6 -0.1 0.1-0.4 0.3-1 0.6 -0.4 0.2-0.7 0.5-0.7 0.7 0 0.3 0.3 0.8 1 1.5 1.5 1.4 2.5 2.5 2.9 3.1 0.1 0.2 0.2 0.4 0.1 0.6 -0.1 0.2-0.2 0.2-0.5 0.3 -0.2 0-0.5-0.1-0.7-0.2 -0.2-0.1-0.4-0.3-0.6-0.5 -0.4-0.6-1.1-1.4-1.9-2.2 -1.1-1-1.8-1.7-2.1-2.1 -0.2-0.2-0.4-0.3-0.6-0.4 -0.2 0-0.4 0.1-0.4 0.3 0 0.2 0 0.8 0 1.6 0 0.3 0.1 0.7 0.2 1.2 0.2 0.6 0.3 1 0.3 1.2 0 0.2 0 0.4-0.2 0.6 -0.1 0.1-0.3 0.2-0.6 0.2 -0.1 0-0.2 0-0.4 0 -0.2 0-0.3 0-0.4 0 -0.1 0-0.2 0-0.2 0 -0.1 0-0.1-0.4-0.1-1 0-0.3 0-2 0-5 -0.1-3-0.1-4.8-0.2-5.2l-0.1-1c0 0 0.3 0 1 0C171.6 342.2 172.4 342.3 172.4 342.3zM174.5 344.7c-0.1-0.5-0.4-0.9-0.8-1.2 -0.7-0.5-1.4-0.7-2.1-0.5 -0.2 0.1-0.4 0.2-0.5 0.4 -0.1 0.2-0.1 0.3-0.1 0.4 0 0.1 0 0.1 0 0.3 0 0.4 0 1.1-0.1 1.9 -0.1 0.9-0.2 1.6-0.2 1.9 0 0.3 0.1 0.5 0.3 0.6 0.2 0.2 0.4 0.2 0.7 0.1 0.4-0.1 0.8-0.4 1.2-0.7 0.6-0.5 1.1-1 1.5-1.6C174.6 345.7 174.7 345.2 174.5 344.7z" class="b"/><path d="M184.7 348.5c0.2 1.9 0.4 3.6 0.8 5.2 0.1 0.2 0 0.5-0.1 0.6 -0.1 0.1-0.3 0.2-0.6 0.2 -0.2 0-0.4 0-0.6 0 -0.3 0-0.5-0.1-0.6-0.2 -0.1-0.2-0.2-0.4-0.1-0.6 0.3-0.8 0.4-1.4 0.5-1.9 0.5-3 0.4-5.9-0.3-8.8 -0.1-0.3 0-0.5 0.1-0.7 0.1-0.2 0.3-0.3 0.5-0.3 0.2 0 0.4 0.1 0.6 0.2 0.1 0.2 0.2 0.4 0.2 0.7C184.7 345.2 184.6 347.1 184.7 348.5z" class="b"/><path d="M197 342.8c-0.2 0-0.4 0-0.6-0.1 -0.3-0.1-0.6-0.2-0.9-0.2 -0.7 0-1.3 0.3-1.9 0.9 -0.5 0.6-0.7 1.2-0.6 1.9 0.1 0.5 0.6 1.2 1.5 2.1 0.2 0.2 0.5 0.4 0.9 0.7 0.4 0.3 0.7 0.5 0.9 0.7 0.7 0.7 1 1.5 1.1 2.4 0.1 1-0.3 1.8-1.1 2.3 0 0-0.1 0.1-0.2 0.1 -0.1 0-0.2 0.1-0.2 0.1 -0.1 0.1-0.2 0.2-0.4 0.4 -0.2 0.2-0.3 0.3-0.4 0.3 -0.6 0.3-1.5 0.3-2.6 0.1 -0.3 0-0.5-0.2-0.7-0.4 -0.2-0.2-0.3-0.4-0.3-0.7 0-0.2 0-0.4 0.1-0.5 0.1-0.1 0.2-0.2 0.3-0.1 0.2 0.2 0.3 0.3 0.4 0.3 0.9 0.4 1.5 0.5 2 0.3 0.6-0.2 1.1-0.6 1.5-1.1 0.4-0.6 0.5-1.3 0.2-2 -0.3-0.8-1.2-1.6-2.5-2.2 -0.1-0.1-0.6-0.4-1.3-1.2 -0.3-0.3-0.5-0.6-0.6-0.7 -0.2-0.4-0.2-0.8-0.2-1.4 0-0.5 0.1-0.9 0.2-1.3 0.3-0.7 0.9-1.2 1.9-1.4 0.8-0.2 1.7-0.3 2.9-0.1 0.3 0 0.5 0.1 0.7 0.2 0.2 0.1 0.3 0.2 0.3 0.4C197.2 342.7 197.1 342.8 197 342.8z" class="b"/><path d="M208.6 341.9c1.5-0.1 2.9 0 4 0.5 1.2 0.5 2 1.2 2.4 2.1 0.4 0.8 0.6 2 0.6 3.5 0 1.5-0.2 2.6-0.6 3.4 -0.3 0.6-0.9 1.2-1.9 1.7 -0.9 0.6-1.7 0.9-2.5 1.1 -1.5 0.4-3 0-4.4-1 -1-0.7-1.8-1.6-2.3-2.7 -0.4-0.7-0.6-1.6-0.7-2.6 0-0.9 0.1-1.8 0.4-2.6 0.2-0.6 0.4-1 0.5-1.2 0 0 0.1-0.1 0.2-0.2 0.1-0.1 0.2-0.2 0.3-0.2 1.1-1.2 2.4-1.8 3.9-1.8H208.6zM213 351.5c0.6-0.9 1-1.9 1.2-3 0.2-1.3 0-2.3-0.6-3.1 -0.3-0.3-0.9-0.9-1.9-1.6 -0.5-0.4-1-0.6-1.5-0.9 -0.1 0-0.2-0.1-0.4-0.2 -0.2-0.1-0.4-0.2-0.4-0.2 -0.3-0.1-0.6-0.2-0.8-0.1 -0.1 0-0.2 0.1-0.4 0.2 -0.2 0.1-0.3 0.2-0.3 0.2 -0.1 0-0.2 0.1-0.4 0.1 -0.2 0-0.3 0.1-0.4 0.1 -0.6 0.4-1.2 1-1.7 1.7 -0.1 0.2-0.2 0.4-0.3 0.6 -0.1 0.2-0.1 0.3 0 0.3 0 0 0 0.1 0 0.2 0 0-0.1 0.2-0.2 0.6 -0.3 0.9-0.3 1.9-0.1 2.8 0.2 0.9 0.6 1.7 1.1 2.4 1 1.3 2.1 1.9 3.4 1.8C210.9 353.4 212.1 352.7 213 351.5z" class="b"/><path d="M227.9 342.8c0.2 0.5 0.5 1.2 0.9 1.9 0.5 1 0.9 1.6 1 1.9 0.1 0.2 0.4 1 1 2.4 0.4 1 0.8 1.8 1.1 2.4 0.8 1.5 1.1 2.2 1.1 2.1 0.1 0.2 0.1 0.5 0.1 0.6 -0.1 0.2-0.2 0.2-0.4 0.2 -0.2 0-0.4-0.1-0.6-0.3 -0.2-0.2-0.3-0.4-0.4-0.7 -0.1-0.4-0.4-1.1-0.8-2.1 -0.1-0.2-0.3-0.5-0.5-0.7 -0.3-0.2-0.5-0.3-0.8-0.3 -0.3 0-1.3 0-2.8 0 -0.1 0-0.2 0-0.4 0 -0.2 0-0.3 0-0.4 0 -0.3 0.1-0.7 0.3-1 0.8 -0.2 0.3-0.4 1.1-0.7 2.5 0 0.3-0.2 0.5-0.4 0.6 -0.2 0.2-0.5 0.3-0.8 0.3 -0.2 0-0.5 0-0.8 0 -0.3 0-0.5 0-0.7 0 -0.2-0.1-0.2-0.1-0.1-0.2 0.2-0.2 0.3-0.3 0.3-0.3 0.3-0.4 0.7-1.1 1.2-2.1 0.2-0.3 0.4-0.8 0.8-1.4 0.4-0.6 0.7-1.1 0.8-1.4 0.3-0.5 0.6-1.3 1-2.3 0.4-1.2 0.7-2 0.9-2.4 0.1-0.2 0.2-0.4 0.4-0.7 0.2-0.3 0.3-0.5 0.4-0.7 0.3-0.6 0.4-0.9 0.4-0.9C227.6 341.8 227.7 342.1 227.9 342.8zM229.8 348.8c0-0.2-0.1-0.5-0.3-1.1 -0.1-0.3-0.2-0.7-0.4-1.2 -0.5-1.4-0.8-2.1-0.9-2.1 -0.3-0.1-0.5 0.1-0.7 0.6 -0.1 0.2-0.1 0.4-0.2 0.6 -0.1 0.3-0.1 0.5-0.1 0.5 -0.3 0.8-0.6 1.6-1.1 2.5 -0.1 0.2-0.1 0.5 0 0.6 0.1 0.2 0.3 0.3 0.6 0.3 0.1 0 0.4 0 0.7-0.1 0.3 0 0.5 0 0.7 0 0.1 0 0.3 0 0.7 0 0.3 0 0.5 0 0.6 0C229.6 349.4 229.8 349.2 229.8 348.8z" class="b"/><path d="M241 341.8c0.6 0 1.1 0 1.4 0.1 1 0.1 1.8 0.3 2.3 0.7 0.9 0.7 1.3 2.1 1.3 4 0 0.6-0.1 1-0.4 1.2 -0.1 0.1-0.5 0.3-1.2 0.6 -0.9 0.4-1.4 0.6-1.7 0.6 -0.2 0-0.4 0-0.7 0 -0.3 0-0.5 0-0.7 0 -0.5 0.1-0.7 0.3-0.8 0.6 -0.1 0.2 0 0.9 0.3 2.1 0 0.1 0.1 0.3 0.1 0.6 0 0.2 0.1 0.4 0.1 0.5 0.1 0.3 0 0.5-0.2 0.8 -0.1 0.3-0.4 0.4-0.6 0.5 -0.2 0-0.3 0.1-0.4 0.1 -0.3 0-0.5-0.1-0.6-0.3 -0.2-0.2-0.2-0.4-0.2-0.7 0.3-3 0.2-6.6-0.2-10.7 0-0.3 0-0.5 0.2-0.6 0.2-0.2 0.4-0.2 0.6-0.2C239.9 341.7 240.4 341.8 241 341.8zM244.7 345.3c0.2-0.9-0.1-1.7-0.7-2.2 -0.2-0.2-0.5-0.3-1-0.6 -0.5-0.2-0.9-0.3-1.2-0.4 -0.1 0-0.3 0-0.5 0.1 -0.4 0.1-0.6 0.2-0.7 0.2 -0.1 0.1-0.2 0.5-0.1 1.1 0.1 2.1 0.2 3.3 0.1 3.8 0 0.3 0.1 0.5 0.2 0.8 0.2 0.2 0.3 0.4 0.6 0.3 0.2 0 0.5-0.1 0.8-0.3 0.6-0.3 1.1-0.6 1.4-0.8C244.1 346.8 244.5 346.1 244.7 345.3z" class="b"/><path d="M230 130.7c-5.6 15.4-17.3 18.3-29.7 22.4 -12.4 4.1-37.9 25.7-37.9 25.7 7.6-23.8 25.6-24.1 32.4-35.8 6.8-11.7-26.8-35.7-6.4-32 22.3 4.1 23.5 11.2 45.3 13.9 0 0 91.4 12 136.5 82.2 0 0 24.7 35.6 23.4 56.5l-5.1 14.4c0 0 7.8-45.4-54-102.6 -21.3-19.7-47.1-40.1-100.9-44.3L230 130.7z" class="b"/><path d="M327.4 187c0 0 2.2 1.6 3.9 10.5 1.7 8.8 2.2 31.2 19.9 28.6 0 0 10.3 0.4 6.3-13.5C353.5 198.5 327.4 187 327.4 187z" class="b"/><path d="M299.6 223.2c0 0 2.1 1.3 10-0.3 7.9-1.6 26.7-8.6 30.5 7 0 0 3.9 8.4-9.1 9.8C317.9 241 299.6 223.2 299.6 223.2z" class="b"/><path d="M360.2 208.8c0 0 3.7 2.6 1.2 11.1 -2.5 8.5-12.1 28.5 4.2 34 0 0 8.5 4.9 11.4-9.2C379.8 230.6 360.2 208.8 360.2 208.8z" class="b"/><path d="M319.1 243.4c0 0 1.9 1.6 10.1 1.3 8.2-0.3 28.3-4.5 29.6 11.9 0 0 2.5 9.1-10.8 8.4C334.8 264.4 319.1 243.4 319.1 243.4z" class="b"/><path d="M309.6 174c0 0 12 4.6 15.8 12.3 3.8 7.8 3.6 12.7 3.5 16.8 0 0-0.5 8.1-10.6 2.9 -10.1-5.2-8.1-17.1-8.1-17.1S312.8 179.9 309.6 174z" class="b"/><path d="M297.8 166.6c0 0 7.5 5.5 9.1 10.6 1.6 5.1 1.9 5.1 0.9 10.4 -0.9 5.3-7 6.8-11.3 0.6C292.2 182 300.3 177.1 297.8 166.6z" class="b"/><path d="M285.5 210.8c0 0 9.5 14.1 29.1 8.8 0 0 5.8-3.7 4.6-7.4 -1.2-3.7-3.3-5.9-8.7-6.5C305.1 205.1 288.8 216.3 285.5 210.8z" class="b"/><path d="M302.8 196.6c0 0 5.2 4.2 0.1 8.1 -5.1 3.9-19.5 6.4-26.5-4.9 0 0 6.1 0.9 9.4-0.7C289.2 197.6 294.9 190.7 302.8 196.6z" class="b"/><path d="M282 162.7c0 0 11.2 2.6 12.4 14.2 1.2 11.6-9.4 9.4-11.1 4.4C281.7 176.3 287.7 169.4 282 162.7z" class="b"/><path d="M283.4 186.4c0 0 7.3-1.1 8.3 6.2 0 0-7.5 13.4-24.8-3.4 0 0 5.4 1 7.7-0.1C276.9 188.1 283.4 186.4 283.4 186.4z" class="b"/><path d="M269.9 159.2c0 0 13 4.4 11.3 16.7 0 0-1.5 4.1-5.4 1.5 -3.9-2.6-5.8-5.8-4.9-14.4C270.8 162.9 272.2 160.6 269.9 159.2z" class="b"/><path d="M271 176.6c0 0 7.3 1.4 6.2 6.5 0 0-2.9 11.4-20.6-3.3 0 0 3.6 0.2 6.5-1.3C266.1 177 271 176.6 271 176.6z" class="b"/><path d="M308 229.6c0 0-5.1-7.2-19.2-8.9 0 0 10.8-0.2 21.3 8.9L308 229.6z" class="b"/><path d="M289.8 214.2c0 0-6.6-4.9-8.9-6 -2.3-1.1 13.1 7.9 15.1 5.5" class="b"/><path d="M279.4 202.5c0 0-4.8-4-9.2-6.9 0 0 11.8 8.1 13.3 6" class="b"/><path d="M270.8 192c0 0-7.3-6.4-17.7-6.8 0 0 6.1-1.6 19.1 6.8L270.8 192z" class="b"/><path d="M286.1 165.1c0 0-7.5-4.8-8.7-5.1 0 0 10.2 5.8 10.7 7.4" class="b"/><path d="M300.2 172.9c0 0-0.9-4.8-4.4-9C295.8 163.9 301.5 169.4 300.2 172.9z" class="b"/><path d="M316.5 178.5c0 0-12.1-8.8-14.2-11.5C302.4 167 311.2 176.2 316.5 178.5z" class="b"/><path d="M323.3 176.6c0 0 0.8 10.5 15.4 16.8C338.7 193.4 322.1 187.8 323.3 176.6z" class="b"/><path d="M236.3 148.6c0 0 19.8 7.2 33.7 20.3l0.1-1.3C270 167.5 261.7 154.6 236.3 148.6z" class="b"/><path d="M271.7 174.9l-1.8-3.2c0 0-16.9-14.2-51.9-11 -35 3.3-36.6 8.8-49.3 19.5 0 0 14.7-18 59.5-18.9C228.2 161.4 258 162.8 271.7 174.9z" class="b"/><path d="M271.6 175.4c0 0-20.1-16.9-54-10.8 0 0-30.3 6.6-50.4 29.5 0 0 29.7-26.7 53.4-28.5 0 0 24.2-5.8 47.6 10.6C268.2 176.2 269.2 175 271.6 175.4z" class="b"/><path d="M208.7 153.5c0 0 17.9-7.9 61.4 16.1l-0.1 1.3C270 170.9 234.4 150.1 208.7 153.5z" class="b"/><path d="M266.3 176c0 0-16.4-19.6-72.8 3.2 0 0 44.2-20 70.3-2.2L266.3 176z" class="b"/><path d="M262.4 176.6l-1 1.1c0 0-24.5-18.3-39 17.7C222.4 195.4 231.6 158.8 262.4 176.6z" class="b"/><path d="M260.6 178.3l-2 0.5c0 0-14.4-11.7-19.2 8.5C239.3 187.3 240.9 165.7 260.6 178.3z" class="b"/><path d="M342.7 229.6c0 0 4.4 7.1-1.9 10.2 0 0 8.8 0.6 11.5 3.6 0 0-3.1-6.8 1.5-12.5C353.8 231 344.6 232.6 342.7 229.6z" class="b"/><path d="M321.6 210.4c0 0 5.2 1.9 7.1 0.2 0 0 2.2 5.2 4.7 7.3 0 0-11.1-1.7-11.7 0C321.7 218 325.2 214.4 321.6 210.4z" class="b"/><path d="M305.1 195.7c0 0 2.6 4.4 2 6.3 0 0 4.1 1.1 4.4 1.9 0 0-3.2-6.4-3.2-9.6C308.2 194.3 305.9 196.8 305.1 195.7z" class="b"/><path d="M290.4 186.6c0 0 2.5 2.9 2.5 5.1 0 0 3-0.8 4.6 0.8 0 0-4.1-3.7-4.1-6.4C293.4 186.1 291.9 188 290.4 186.6z" class="b"/><path d="M278.2 179.6c0 0 2.3 1.3 3.4-0.4 0 0-0.8 3.2 2.1 5.4 0 0-3.2-0.5-5.7 0.7C278.1 185.3 280.1 180.7 278.2 179.6z" class="b"/><path d="M365.9 257.3l5.3 1.2c0 0 8.6 10.2 16.5 33.8l-3.2 14.3c0 0 1.5-24.1-18.2-45.3L365.9 257.3z" class="b"/><path d="M232.3 201.2c0 0-28.2 8.7-32.1 31.7C200.1 232.9 195.9 202.6 232.3 201.2z" class="b"/><path d="M240 201.6c0 0 15.5-1.7 24.5-3.4l5.2 0.2 4.9 4.1c0 0-4.4-4.3-23.1 2.4C251.5 204.8 250.7 202.3 240 201.6z" class="b"/><path d="M277 230.8c0 0 28.6-1.8 46.7 23.5 0 0 5.8 5.7 11.5 6.5 0 0-39.2 13.3-56.5-16.9C278.7 243.9 280.3 237.3 277 230.8z" class="b"/><path d="M277.9 248c0 0-4 13.1-18.7 18.9 0 0 6.7 27 36.1 22.7 0 0 22.9-4.2 22.8-23.8C318.1 265.8 287.8 268.4 277.9 248z" class="b"/><path d="M262.3 198.9c0 0 9 11 13.1 18.4 4.1 7.3 8.2 16 8.2 16l9.8 0.8c0 0-15.5-12-19.1-26.3l-5.3-7.8L262.3 198.9z" class="b"/><path d="M182.1 223.2l16.3-5 3.2-7.4 -29.4 5.1 -2.4 8.2C169.8 224 179.7 227.3 182.1 223.2z" class="b"/><path d="M169.9 228.9c0 0 8.2 2.4 13.1-0.9 0 0-4.1 5.7-2.4 15.5C180.6 243.6 164.2 242.9 169.9 228.9z" class="b"/><path d="M187.8 225.6c0 0-8.1 12.3-1.5 18 0 0 0.8 4.9 9 2.4l2.4-9.8c0 0-4.1-9.8-1.7-13.9L187.8 225.6z" class="b"/><path d="M165 230.6c0 0-2.4 10.6 5 13.1 0 0 0.9 6.5-6.5 7.4 -7.4 0.9-8.2-13-4.2-18L165 230.6z" class="b"/><path d="M152.8 240.5c0 0-1.6 6.6 8.3 14.7 0 0 0.9 9.8-4.9 8.2C150.4 261.8 140.5 250.4 152.8 240.5z" class="b"/><path d="M152.7 234.8c0 0-9-3.2-11.4 6.6 0 0-2.4 4.1 2.5 7.4C143.8 248.7 147 238.9 152.7 234.8z" class="b"/><path d="M172.9 245c0 0 3.6 1.3 8.7 1 0 0-5.2 5.2-2.4 11.7C179.3 257.8 167.8 254.6 172.9 245z" class="b"/><path d="M184.1 246.3c0 0-7.1 4.9-1 14.7 0 0 4.1 5.4 9 2.4 0 0 5.4-4.9 2.6-15C194.8 248.4 187.4 251.5 184.1 246.3z" class="b"/><path d="M198.6 242.1c0 0 1.9 4.9 4.4 6l3.3-3.6c0 0 5.5 5.7 1.1 11.4 0 0-3 6.3-8.2 1.4 0 0 0-6.3-1.4-8.7L198.6 242.1z" class="b"/><path d="M198.6 259c0 0-0.8 4.4-3.8 5.7 0 0 2.5 3.5 0.9 7.9 0 0 8.7-0.9 7.3-10.1C203 262.6 198.1 260.7 198.6 259z" class="b"/><path d="M209.8 255.4c0 0 0.3 2.2-4.3 5.2 0 0 0.6 2.7-1.1 6.5C204.4 267.2 215.6 266 209.8 255.4z" class="b"/><path d="M180.9 261.9c0 0 4.1 7.1 11.7 3.8 0 0 3.9 8.4-3.7 12.3C188.9 277.9 176.7 280.2 180.9 261.9z" class="b"/><path d="M194.6 275.1c0 0-1.1 3.5-6 5.5 0 0 6 4.6 9.8-3.1C198.5 277.6 194.4 277.9 194.6 275.1z" class="b"/><path d="M197.4 274c0 0 0.6 4.6 8.2 0.5 0 0 5.2-2.8 4.6-7.7 0 0-3.8 3-5.7 1.7C204.4 268.5 202.3 273.5 197.4 274z" class="b"/><path d="M169.7 251.3c0 0 2 8.2 9.6 9.2 0 0-1.3 5.5-0.2 11.4C179.1 272 168.2 269.8 169.7 251.3z" class="b"/><path d="M172 268.7c0 0 3 4.3 7.1 5.1 0 0 2.2 4.6 7.4 6.5C186.5 280.4 175.3 285.3 172 268.7z" class="b"/><path d="M187.6 282.3c0 0 2.7 1.3 4.4 1.3 0 0-1.6 4.4-4.9 4.1 -3.3-0.3-3.6-3.8-3.6-4.6L187.6 282.3z" class="b"/><path d="M167.8 252.4c0 0-3 3.3-4.9 3 0 0-4 13.4 8 17.7l-1.4-6.8C169.5 266.3 166.8 260.8 167.8 252.4z" class="b"/><path d="M165.2 272c0 0 3 3.8 6.8 3 0 0 1.4 7.1 9.3 7.9C181.3 282.9 170.2 285.6 165.2 272z" class="b"/><path d="M160.5 265.5c0 0 1.4 4.4 3.3 6.5 0 0 0 4.1 2.2 6.3 0 0-9.6-2.7-11.5-13.3C154.5 265 158.1 267.7 160.5 265.5z" class="b"/><path d="M144.9 250.9c0 0-1 8.2 8 13 0 0 0 3.3 2.2 7.1 0 0-14.5-1.3-14.8-22C140.3 249 140.8 252 144.9 250.9z" class="b"/><path d="M211.7 253.9c0 0 5.1 6.7 1.1 12.1 0 0 0.2 2.9-1.4 5.1 0 0 8.2-2.9 8.7-9.2 0 0-5.1-4.3-5.2-7.3C215 254.5 213.1 253.2 211.7 253.9z" class="b"/><path d="M173.4 211.3l8.6-0.9 -1.3-4.9C180.8 205.6 174.7 206.8 173.4 211.3z" class="b"/><path d="M183.6 205.6l1.2 4.5 6.9-1.3c0 0 0.4-4.9 2-4.9C193.9 203.9 186.9 199 183.6 205.6z" class="b"/><path d="M195.9 204.7l-1.6 2.9 8.2 0.4c0 0 2.4-3.7 4.5-3.3C206.9 204.6 202 202.2 195.9 204.7z" class="b"/><path d="M289.3 81.9c0 0 22.9 4 27.1 12.9 4.1 9 12.4 19.6-8.8 34.4 0 0-28.6 9.2-34.5-23.5l4.9 4.1c0 0-2-11.5-6.2-24.7 0 0 25.7 1.7 27.3 4.2C299.1 89.2 293.4 81.9 289.3 81.9z" class="b"/><path d="M254.6 90.7c0 0 7.4 3.2 9 9.4l0.4-6.5c0 0 8.1 1.1 11 9.2 0.3 0.9-4.6-1.1-4.6-1.1s0 17.3 11.8 26.9c0 0 0 6.5-6.5 4.9 0 0-15.6-8.1-28.7-10.5 0 0-10.7-7.3-0.1-21.3l2.5 3.3C249.3 105 247.2 96.5 254.6 90.7z" class="b"/><path d="M317.3 118.6c6.5-4.1 5.6-22.9 5.6-22.9l1.6 13.8 5.8-7.3c0 0-11.4 16.4-9.7 25.4 1.7 9 28 43.2 33.1 62.8l-10.7-10.6c0 0-17.4-41.6-26.4-49.7 0 0-20.4 5.8-28.6 7.5l13.1-6.6" class="b"/><path d="M330.5 150.4c0 0-11.5-5.7-33.5-4.7l4.1 4.1c0 0 17.7-2.5 30.1 2.8L330.5 150.4z" class="b"/><path d="M144 228.3l4.9 2.1c0 0-22.3 6.1-20 39.4 0 0-12.9-11.4-4.5-26.4C132.8 228.3 144 228.3 144 228.3z" class="b"/><path d="M139.6 227.7c0 0-12.3-3.2-22.6 10.5 0 0-4.9 9 3.4 21C120.4 259.2 113.5 242.1 139.6 227.7z" class="b"/><path d="M339.4 273c0 0-22.8 18.9-36.6 39.4 -13.8 20.5-3.9 37.6-3.9 37.6s-13.2-15.5 17.8-38.5c16.7-12.4 33-30.6 45.4-27 8.2 2.4 21.8 4.6 24 5.3 4.9 1.6-27.9-11.3-34.4-12.9S345.9 273 339.4 273z" class="b"/><path d="M348.5 288.9c0 0 8-5.4 12.5-2.2l17.5 3.2C378.4 289.9 350.5 287.3 348.5 288.9z" class="b"/><path d="M346.7 268.3c0 0 8.2 1 10.9-0.6 2.7-1.7 18 0.4 14.2 10.8C371.8 278.5 357.7 281.8 346.7 268.3z" class="b"/><path d="M380.4 247.4c0 0-6 6.6-4.3 12 1.7 5.4 4.9 6.5 7.1 3.8C385.4 260.4 380.4 250.7 380.4 247.4z" class="b"/><path d="M273.3 160.8c0 0-5.9-2.8-6.6-7.2C266.7 153.7 267.5 159.2 273.3 160.8z" class="b"/><path d="M141.4 40.2c0 0 4.2 4.2 5.3 26.5 0 0 2.1-9.5 0-16.4C144.6 43.3 144.6 40.7 141.4 40.2z" class="b"/><path d="M260.2 182.5c0 0-3.8-4.4-8.1-2.2 0 0 2.5-2.3 7.6-0.3L260.2 182.5z" class="b"/><path d="M265.9 165.9l1.6 1.4 -1.5-0.5c0 0-17.1-9.6-22.1-10.5C243.9 156.3 261.5 161.9 265.9 165.9z" class="b"/><path d="M255 169.6c0 0-18-8.7-42.9-0.3 0 0 15.8-5.5 38.2-0.9L255 169.6z" class="b"/><path d="M270.2 166.5c0 0-2.4-6.8-17.2-14.9 0 0 10.1 6.3 14.5 12.5L270.2 166.5z" class="b"/><path d="M226.3 122.1c0 0-54.9-19.4-57.1-35.8 -2.2-16.4 11.4-46 33.6-57.2 0 0 7.3 0.2 1.7 3.7 0 0-10.3 9.7-25.5 30.2 -15.2 20.5 7.2 33 29.7 39.1C231.2 108.2 234.8 124.2 226.3 122.1z" class="b"/><path d="M200.1 27.8c0 0-12.4-0.7-20.1 0.6 -6.8 1.2-7.2 8.6-8 12.8 -0.7 4.2-7.9 2.2-8.1 7.6 -0.2 6.4-11.4 15.1 3.7 36.8 0 0-2.6-13.1 6.4-30.1C177.8 48.4 189.6 33.2 200.1 27.8z" class="b"/><path d="M66.3 89.3c-8.3 12-17 31.8-17 31.8 11.1 6.8 21.5 12.7 39.7 9.1 20.1-3.9 25.1 13.1 30 16.1 3.9 2.4 9.3 8.8 27.7 0.2 0 0 18.3-4.9 21.4-15.7 0 0 1.1-2.8 3.2-14.5 1.3-7.2 5-8.9 5-8.9s-11.5 3.3-32 5.4c-11.8 1.2-14.7-2.4-25.7-6.7 -4.6-1.8-7.5-11.8-20-15.2 0 0-4.1 0.6-11.3-3.2 -4.3-2.3-12.5-1.9-19.8 0.3L66.3 89.3z" class="b"/><path d="M47.1 127.3c6.5 4.6 13 6.8 17.8 9.1 15.5 7.8 29.8 1 36.2 6.3 14.8 12.3 27.5 9.2 27.5 9.2 -12.9-1.5-12.3-6.1-20.9-15 -8.6-8.9-20.1-5.4-20.1-5.4s15.3-1.4-6.8 0.7c-14 1.3-25.6-4.3-32.2-8.6L47.1 127.3z" class="b"/><path d="M148 31.8c0 0-1.4 3.6 3.9 7.3 4.8 3.4-0.8 40.2 8.1 46.8 8.9 6.6 7.8 13 17.7 16 0 0-25.6 5.6-43.1-17.4 0 0-11-8.2-11.7-15.5 -0.7-7.3-0.1 2.7-0.7-7.3 -0.5-7.5-3.6-13-2.6-21.1C119.6 40.8 132.5 34.3 148 31.8z" class="b"/><path d="M157.4 30.3c1.8 9.4 2.7 20.7 1.7 28.1 -1.8 12.8 2.1 21.3 5.7 26.1 3.6 4.8 4.4 10.3 4.4 10.3 -0.5-1.8-4.1-5.9-7.9-9.3 -3.8-3.5-6.9-21.4-5.7-32.6 1.3-11.2 0.3-13-2.9-15.2 -2.6-1.8-3.8-3.9-3.4-6.1C149.4 31.4 157.4 30.3 157.4 30.3z" class="b"/><path d="M132.4 156.9c0 0-5.8 12.6-12.5 4.1 0 0-7.1-2.7-14.1 9.5 -5.1 8.8-4.6 19-21.5 40.6 -2.3 2.9-11 10.2-2.3 14.5 0 0-16.4 0.9-8.4-22.5 1.5-4.3 5-6.4 7-21.6 2.1-15.3 7.2-10.6 14.6-16.8 7.5-6.2 5.7-8.5 13.5-9.6C114.7 154.1 117.4 160.5 132.4 156.9z" class="b"/><path d="M107.5 153.1c0 0-7.3 0.7-9.7 6.1 -2.4 5.4-13.9 8.2-13.9 8.2s-3.8 4.9-5.3 11.2c-1.6 6.3-1.3 12.2-5.1 18 0 0-3.5 9-3.2 14.9 0 0-4.1-15.1 2.3-29C78.9 168.6 78.4 154 107.5 153.1z" class="b"/><path d="M110.2 50.5c0 0-9.5 8.5-6.5 15 3 6.5-15.1 8 8.2 30.6 0 0 1.5 10.8 31.8 20.1 16.7 5.1 28.4-7 32.6-8.7 0 0-19.4-3.6-30.8-10 -11.3-6.4-6.5-5.3-12.4-10.7 -1.7-1.5-6.8-6.6-11.4-13.7C116.5 65 123.3 59.4 110.2 50.5z" class="b"/><path d="M178.8 108.7c0 0-4.3 2.3-6 7.1 0 0-1.1 6-0.4 11.5 0.7 5.5-11 21.5-26.5 23.8 -15.5 2.3-9.3 5.2-14.9 11.1 -5.6 5.9-8 3.4-8 3.4s-6.5-6.9-11 2.1c-5.3 10.6-5.1 49.3 38.2 58.8 0 0 9.2 7.9 15.8-1.9 6.7-9.8-0.6-14.1-5.4-20.8 -7.6-10.5-2.3-11.1-1.1-22.9 1.3-11.8 13-23.9 22.3-30 0 0 12.1-7.1 11.1-12.9 -1-5.8-8.3-13.6-12.4-20.4C179.3 115.4 176.8 113.2 178.8 108.7z" class="b"/><path d="M262.3 182c0 0 5.5 2.5 12.5 1.9C274.8 183.9 268.7 187.2 262.3 182z" class="a"/><path d="M273.3 193.3c0 0 9.2 6.9 16.9-0.1C290.2 193.2 283.2 199.4 273.3 193.3z" class="a"/><path d="M300.4 169.6c0 0 11.2 12 4 20.8C304.4 190.4 310.6 182.9 300.4 169.6z" class="a"/><path d="M281.4 203.2c0 0 14.2 8.7 22.7-2.4C304 200.8 298.9 210.9 281.4 203.2z" class="a"/><path d="M292.2 216.2c0 0 15.5 8.3 25.4-1.2C317.6 215 309 223.3 292.2 216.2z" class="a"/><path d="M317.2 179.8c0 0 10.1 6.3 9.9 22.8C327.1 202.6 327.5 189.1 317.2 179.8z" class="a"/><path d="M334 191.7c0 0 20.6 10.6 22.3 28.9C356.3 220.6 353.2 202.7 334 191.7z" class="a"/><path d="M345.8 205c0 0 8.7 7.9 6.1 18.8C351.8 223.8 352.7 214.1 345.8 205z" class="a"/><path d="M322.4 236.4c0 0 15.5 5 16.8-5.3C339.3 231.1 339.6 239.7 322.4 236.4z" class="a"/><path d="M371.6 228.9c0 0 6.1 12.8 0.7 21.3 0 0-3.5 4.9-8.2 1.1 0 0 7.9 4.6 9.5-8.8C373.6 242.6 373.8 234.4 371.6 228.9z" class="a"/><path d="M339.8 259.9c0 0 12.9 7.8 17.4-0.6C357.3 259.3 355.1 265.8 339.8 259.9z" class="a"/><path d="M233.8 261.3l6.5-0.9 8.2 2.4 -4.9 0c0 0-3.3 2.5-6.5-0.8L233.8 261.3z" class="a"/><path d="M279.8 286.4l9.8-2.1 10.2 1.2 -4.5 0.8c0 0-4.5 3.3-8.2 0L279.8 286.4z" class="a"/><path d="M280.2 109.9c0 0 11.9 12.2 23.4 14.2C303.5 124 288 122.1 280.2 109.9z" class="a"/><path d="M299.1 89.2c0 0 18.6 12.3 16.2 25.8C315.3 115 321.2 102.1 299.1 89.2z" class="a"/><path d="M250.7 107.2c0 0 1.7 10.2 8.3 15.1C259 122.2 249.5 118.2 250.7 107.2z" class="a"/><path d="M319.1 300c0 0 18.1-24 29.7-21.8C348.8 278.1 342.7 280.2 319.1 300z" class="a"/><path d="M279.1 228.2c0 0 11.3 22.5 27.7 23.4 0 0-15.9-4.3-24.7-21.6L279.1 228.2z" class="a"/><path d="M264.4 105.4c0 0 2.7 4.2 3.2 17C267.6 122.3 271.3 111.7 264.4 105.4z" class="a"/><path d="M135.7 72.8c0 0 12.6 23.1 44.2 30.6l1.9 1.4c0 0-34.7-6.7-47.2-32.7L135.7 72.8z" class="a"/><path d="M145.3 78.8c0 0 9.1 14.8 16.7 18.4l1.3 1.1c0 0-12-9-17-19.2L145.3 78.8z" class="a"/><path d="M101.9 98.1c0 0-0.6 28.5 68.6 28.6l0.3 0.9c0 0-65.9 1.9-69.5-28.6L101.9 98.1z" class="a"/><path d="M99 104.6c0 0 10.9 36.9 70.7 24l0.6 0.8c0 0-59.1 14.1-72-24.5L99 104.6z" class="a"/><path d="M120.3 138.3c0 0 29.5 10.8 47.7-3.2l0 0.9c0 0-18 13.7-48.4 2.8L120.3 138.3z" class="a"/><path d="M129 136.2c0 0 15.2 8.9 30.7 3.1 0 0-11.2 5.1-29.2-2.9L129 136.2z" class="a"/><path d="M131 67.9c0 0-1.4 0.9-0.3 2.3 1.1 1.4 6.5 2.2 7.4 2.5C138.2 72.6 141.4 70.7 131 67.9z" class="a"/><path d="M124 134.2c0 0-0.8 1.4 0.8 2.1 1.6 0.7 6.8-1.2 7.7-1.4C132.6 134.9 134.5 131.7 124 134.2z" class="a"/><path d="M143.5 75.3c0 0-0.6 3.2 4.5 3.1C153 78.3 147 75.6 143.5 75.3z" class="a"/><path d="M99.8 94c0 0-2.9 4.2-0.6 5.2 0 0 1.8 0.5 3-2.9C102.2 96.3 102.3 92.4 99.8 94z" class="a"/><path d="M97.7 101.9c0 0-3 1.3-3.1 3.8 0 0-0.3 2.3 5.1-2.6C99.7 103.1 99.5 101.5 97.7 101.9z" class="a"/><path d="M120.8 136.4c0 0-3.4-1.9-4.4 2.4C115.3 143.1 118.2 139.3 120.8 136.4z" class="a"/><path d="M57.3 109.1c0 0 29-2.1 44.2 9.1C101.5 118.2 90.8 101.6 57.3 109.1z" class="a"/><path d="M115.1 84.7c0 0 16.5 30.8 57.9 28.4l-0.8 1.3c0 0-40.3 2.9-58.1-29.3L115.1 84.7z" class="a"/><path d="M112.4 79.9c0 0-5.3 5 4.3 5.8C116.6 85.8 119.6 84.2 112.4 79.9z" class="a"/><path d="M145.3 154.1c0 0-30.4 22.1 12.5 67.7 0 0-35.7-24.4-20-59.1C137.7 162.7 139.1 155.7 145.3 154.1z" class="a"/><path d="M141.2 118c0 0 16.6 6 30.7-2.6 0 0-10.1 7.1-29.2 2.5L141.2 118z" class="a"/><path d="M142.2 113.4c0 0-3.3-1.9-4.4 2.4C136.7 120.1 139.6 116.3 142.2 113.4z" class="a"/><path d="M154 331.1c-0.3 0.1-0.8 0.2-1.2 0.2 -0.8 0-1.9-0.1-3.3-0.1 -1.1 0-2.2 0-3.3 0 -0.5 0-1.4 0.1-2.6 0.1 -1 0-2.1 0-3.2-0.1 -0.4 0-0.9 0-1.4 0 -0.7 0-1 0.1-0.9 0.1 -0.1 0-0.6-0.1-1.5-0.3 -0.2 0-0.4-0.1-0.6-0.2 -0.2-0.1-0.4-0.2-0.5-0.2 -0.2 0-0.4 0.1-0.6 0.3 -0.2 0.2-0.4 0.4-0.6 0.4 -0.4 0-0.9 0.1-1.7 0.3 -0.1 0.1-0.4 0.1-0.7 0.2 -0.7 0-1.2-0.2-1.4-0.5 -0.3-0.5-0.3-0.9-0.1-1.4 0.4-0.4 1.4-0.6 2.8-0.6 0.6 0 1.4 0.3 2.2 0.8 0.2-0.2 0.5-0.4 0.9-0.6 0.6-0.2 1.3-0.2 2.1-0.2 0.7 0.1 1.4 0.1 2 0.1 0.2 0 1.4 0 3.5-0.1 0.8 0 2.2 0.1 4 0.1 0.8 0 1.6 0 2.5 0 0.8 0 1.5-0.1 2.1-0.2 0.3-0.1 0.7 0 1.2 0.2 0.5 0.2 0.8 0.4 0.8 0.6 0.2 0.3 0.3 0.5 0.3 0.6C154.7 330.7 154.5 330.9 154 331.1zM153.3 311.3c0 0.1-0.1 0.3-0.4 0.6 -0.3 0.2-0.5 0.4-0.7 0.4 -0.4 0-1.1 0-2 0 -0.9-0.1-1.6-0.1-2-0.1l-3 0c-1.3 0-2.7 0-4.3 0.1 -1.6 0-2.7 0.1-3.5 0.1 -0.5 0-1-0.1-1.6-0.3 -0.2-0.1-0.5-0.1-0.9-0.1 -0.1 0-0.4 0.1-1 0.4 -0.6 0.3-1.1 0.4-1.5 0.4 -0.8-0.1-1.3-0.3-1.3-0.8 0-1 0.7-1.5 2.2-1.5 0.1 0 0.5 0.1 0.9 0.3 0.5 0.2 0.7 0.3 0.8 0.3 0.1 0 0.3 0 0.5-0.1 0.3-0.1 0.4-0.2 0.5-0.2 0.2-0.1 0.8-0.1 1.9-0.2l6.5-0.2 4.7 0c0.1 0 0.4 0 1-0.1 0.6-0.1 1-0.1 1.3-0.1 0.2 0 0.6 0.1 1 0.4C153.1 310.7 153.3 311 153.3 311.3zM152.4 320.1c0 0.1-0.1 0.3-0.4 0.6 -0.2 0.2-0.5 0.4-0.7 0.4 -0.4 0-1.1 0-2 0 -0.9 0-1.5 0-1.9 0l-2 0c-1.2 0-2.5 0-3.6 0.1 -1.1 0-2.1 0.1-2.9 0.1 -1 0-1.5-0.1-1.7-0.3 -0.1-0.2-0.3-0.3-0.7-0.3l-1 0.4c-0.7 0.4-1.2 0.5-1.6 0.5 -0.2 0-0.5-0.1-0.7-0.2 -0.3-0.2-0.5-0.4-0.5-0.6 0-1 0.7-1.5 2.1-1.5 0.2 0 0.5 0.1 0.9 0.3 0.5 0.2 0.8 0.3 0.8 0.3 0.1 0 0.3-0.1 0.5-0.2 0.3-0.1 0.4-0.1 0.5-0.1 0.7-0.2 1.3-0.3 2-0.3l8.8 0c0.1 0 0.4 0 1-0.1 0.6 0 1.1-0.1 1.3-0.1 0.2 0 0.6 0.1 1 0.4C152.1 319.5 152.4 319.8 152.4 320.1z" class="b"/><path d="M183.6 330.9c-0.3 0.1-0.8 0.2-1.2 0.2 -0.8 0-1.9-0.1-3.3-0.1 -1.1 0-2.2 0-3.3 0 -0.5 0-1.4 0.1-2.6 0.1 -1 0-2.1 0-3.2-0.1 -0.4 0-0.9 0-1.4 0 -0.7 0-1 0.1-0.9 0.1 -0.1 0-0.6-0.1-1.5-0.3 -0.2 0-0.4-0.1-0.6-0.2 -0.2-0.1-0.4-0.2-0.5-0.2 -0.2 0-0.4 0.1-0.6 0.3 -0.2 0.2-0.4 0.4-0.6 0.4 -0.4 0-0.9 0.1-1.7 0.3 -0.1 0.1-0.4 0.1-0.7 0.1 -0.7 0-1.2-0.2-1.4-0.5 -0.3-0.5-0.3-0.9-0.1-1.4 0.4-0.4 1.4-0.6 2.8-0.6 0.6 0 1.4 0.3 2.2 0.8 0.2-0.2 0.5-0.4 0.9-0.6 0.6-0.2 1.3-0.2 2.1-0.2 0.7 0.1 1.4 0.1 2 0.1 0.2 0 1.4 0 3.5-0.1 0.8 0 2.2 0.1 4 0.1 0.8 0 1.6 0 2.5 0 0.8 0 1.5-0.1 2.1-0.2 0.3-0.1 0.7 0 1.2 0.2 0.5 0.2 0.8 0.4 0.8 0.6 0.2 0.3 0.3 0.5 0.3 0.6C184.4 330.6 184.1 330.8 183.6 330.9zM183 311.1c0 0.1-0.1 0.3-0.4 0.6 -0.3 0.2-0.5 0.4-0.7 0.4 -0.4 0-1.1 0-2 0 -0.9-0.1-1.6-0.1-2-0.1l-3 0c-1.3 0-2.7 0-4.3 0.1 -1.6 0.1-2.7 0.1-3.5 0.1 -0.5 0-1-0.1-1.6-0.3 -0.2-0.1-0.5-0.1-0.9 0 -0.1 0-0.4 0.1-1 0.4 -0.6 0.3-1.1 0.4-1.5 0.4 -0.8-0.1-1.3-0.3-1.3-0.8 0-1 0.7-1.5 2.2-1.5 0.1 0 0.5 0.1 0.9 0.3 0.5 0.2 0.7 0.3 0.8 0.3 0.1 0 0.3 0 0.5-0.1 0.3-0.1 0.4-0.2 0.5-0.2 0.2-0.1 0.8-0.1 1.9-0.2l6.5-0.2 4.7 0c0.1 0 0.4 0 1-0.1 0.6-0.1 1-0.1 1.3-0.1 0.2 0 0.6 0.1 1 0.4C182.7 310.5 183 310.8 183 311.1zM182 319.9c0 0.1-0.1 0.3-0.4 0.6 -0.2 0.2-0.5 0.4-0.7 0.4 -0.4 0-1.1 0-2 0 -0.9 0-1.5 0-1.9 0l-2 0c-1.2 0-2.5 0-3.6 0.1 -1.1 0-2.1 0.1-2.9 0.1 -1 0-1.5-0.1-1.7-0.3 -0.1-0.2-0.3-0.3-0.7-0.3l-1 0.4c-0.7 0.4-1.2 0.5-1.6 0.5 -0.2 0-0.5-0.1-0.7-0.2 -0.3-0.2-0.5-0.4-0.5-0.6 0-1 0.7-1.5 2.1-1.5 0.2 0 0.5 0.1 0.9 0.3 0.5 0.2 0.8 0.3 0.8 0.3 0.1 0 0.3-0.1 0.5-0.2 0.3-0.1 0.4-0.1 0.5-0.2 0.7-0.2 1.3-0.3 2-0.3l8.8 0c0.1 0 0.4 0 1-0.1 0.6 0 1.1-0.1 1.3-0.1 0.2 0 0.6 0.1 1 0.4C181.8 319.3 182 319.6 182 319.9z" class="b"/><path d="M213.6 320.9c0 0.3-0.4 0.5-1.2 0.6 -0.2 0-1.1 0-2.7 0 -0.7 0-1.8 0-3.3-0.1 -1.5-0.1-2.6-0.1-3.4-0.1l-3.1 0c-0.4 0-0.9 0-1.7 0.1 -0.8 0.1-1.4 0.1-1.8 0.1l-0.5 0.1c-0.3 0-0.5 0.1-0.7 0.1 -0.1 0-0.4 0-0.7-0.1 -0.3-0.1-0.5-0.2-0.5-0.2l-0.7 0.3c-0.5 0.2-0.9 0.3-1.3 0.3 -1.2 0-1.8-0.3-1.8-0.9 0-0.7 0.5-1 1.6-1h0.4c1 0.3 1.6 0.5 1.7 0.5 0 0 0.1-0.1 0.3-0.2 0.2-0.2 0.4-0.3 0.6-0.3 0.1 0 0.2-0.1 0.5-0.1 1.3 0 2.3-0.2 3-0.7 0.9-0.6 1.3-1.6 1.3-3.1 0-0.4-0.1-0.7-0.4-0.7 -0.2-0.1-0.5-0.1-0.9-0.3 -0.1-0.1-0.3-0.2-0.5-0.3 -0.2-0.1-0.4-0.1-0.6-0.1 -1.5 0.5-2.5 0.8-3 0.8 -0.8 0-1.2-0.3-1.2-1 0-0.4 0.2-0.6 0.6-0.8 0.3-0.2 0.6-0.2 0.9-0.2 1 0 1.5 0 1.6 0 0.3 0.1 0.6 0.1 0.9 0.2l0.5 0.2c-0.1 0 0.1-0.1 0.5-0.3 0.3-0.2 0.7-0.2 1-0.2 0.8 0 1.4-0.3 1.7-0.7 0.4-0.4 0.5-1 0.5-1.6 0-0.9-0.2-1.3-0.6-1.3 -0.1 0-0.3-0.1-0.6-0.2 -0.3-0.1-0.6-0.1-0.7-0.1 0 0-0.4 0-1.3 0 -0.8 0-1.2 0-1.3 0 -0.4 0-0.7-0.1-1-0.2 -0.3-0.1-0.5-0.1-0.4-0.1 -0.2 0-0.4 0.1-0.7 0.2 -0.3 0.2-0.6 0.3-0.7 0.4 -0.4 0.1-0.8 0.1-1.2 0.2 -0.7 0-1-0.3-1.1-1 0-0.7 0.4-1 1.1-1 0.5 0 1 0.1 1.4 0.3 0.4 0.2 0.7 0.3 0.7 0.3 0 0 0.2-0.1 0.6-0.3 0.4-0.2 0.8-0.2 1.1-0.2 2.5 0 4.3-0.1 5.4-0.1l1.4 0.1 1.7 0 4.1-0.1c0.4 0 0.7 0 1.1 0 0.5 0 0.8 0 0.9 0 0.6 0 1 0.1 1.3 0.3 0.3 0.2 0.5 0.5 0.5 0.7 0 0.5-0.4 0.8-1.2 0.8 -0.7 0-1.5 0-2.5-0.1 -0.9-0.1-2-0.1-3.1 0 -0.7 0-1.2 0.1-1.5 0.2 -0.3 0.2-0.6 0.3-0.9 0.5 -0.6 0.3-1 1-1 2.1 0 0.3 0.3 0.6 0.8 0.9 0.5 0.3 1 0.4 1.5 0.3 0.2 0 0.6 0 1 0 0.8 0 1.5 0.1 2.2 0.3 0.9 0.3 1.4 0.7 1.6 1.4 0.1 0.9 0.2 1.8 0.3 2.6 0.1 1 0.3 1.5 0.7 1.8 0.1 0.1 0.3 0.1 0.6 0.1 0.1 0 0.2 0 0.5 0 0.2 0 0.4-0.1 0.5-0.1C213.1 319.7 213.6 320.1 213.6 320.9zM211.2 329.1c0 1.3-0.3 2.2-1.1 2.8 -0.6 0.6-1.6 0.8-3 0.7 -0.3 0-0.7 0-1.1 0 -0.6 0-0.9 0-1 0 -0.5 0-1.5 0-2.9-0.1 -0.3 0-0.7 0-1.2 0 0 0-0.2 0-0.4-0.1 -0.3 0-0.5 0-0.7 0 -0.3 0-0.6 0-1-0.1 -0.4-0.1-0.6-0.1-0.6-0.1 -0.1 0-0.3 0.1-0.5 0.2 -0.3 0.1-0.5 0.2-0.6 0.2l-0.8 0c-1.8 0-2.8-0.6-2.9-1.8l0-2.1c0-0.7 0.1-1.4 0.2-2.2 0.1-0.8 0.4-1.3 0.8-1.6 0.3-0.3 0.9-0.4 1.8-0.5 0.9-0.1 2.1-0.2 3.6-0.2l2.5 0c1.3 0 2.4 0.1 3.3 0.2 0.3 0 0.9 0 1.8 0.1 1.8 0 2.9 0.3 3.4 0.9C210.9 325.7 211.2 327 211.2 329.1zM209.4 328.7c0-0.9-0.2-1.5-0.5-1.9 -0.5-0.6-1.4-0.9-2.9-0.9 -2.6-0.1-3.7-0.1-3.5-0.1 -0.1 0-0.6 0-1.5-0.1 -0.9 0-1.5 0-1.7 0 -1.9 0-3.2 0.3-3.6 1 -0.5 0.6-0.8 1.4-0.8 2.4 0 1.2 0.5 1.8 1.4 1.9 0.4 0 1 0.2 1.6 0.6 0.1 0 0.3 0 0.7-0.2 0.6-0.2 1.2-0.3 1.9-0.2 -0.1 0 0.3 0 1.2-0.1 0.8-0.1 1.2-0.1 1.4 0 0.5 0.1 1.3 0.1 2.6-0.1 0.9 0 1.6-0.1 2.2-0.4C209 330.2 209.4 329.6 209.4 328.7zM208.2 317.8c0-1.1-0.3-1.9-0.9-2.2 -0.4-0.2-1.2-0.3-2.3-0.3 -0.2 0-0.4 0-0.7 0 -0.3 0-0.6-0.1-0.7-0.1 -0.7 0-1.3 0.3-1.9 0.9 -0.6 0.6-0.9 1.2-0.9 2 0 0.9 0.4 1.5 1.2 1.7 0.6 0.2 1.3 0.2 2.1 0.2 1.9-0.2 2.9-0.2 3-0.2C207.8 319.4 208.2 318.8 208.2 317.8z" class="b"/><path d="M226.7 314.5c0 0.7 0 1.2-0.1 1.3 0 0.2-0.3 0.6-0.9 1.4 -0.3 0.5-1 1.1-2.1 1.9 -0.4 0.3-1 0.7-1.8 1.2 -0.1 0-0.3 0.1-0.6 0.2 -0.1 0-0.3 0.1-0.4 0.3 -0.1 0.1-0.1 0.3-0.1 0.7 0 0.4 0.2 0.8 0.5 1.2 0.4 0.4 0.7 0.5 1.1 0.5 1.2 0.1 1.9-0.4 2.2-1.3 0-0.4 0-0.9 0-1.3 0-0.6 0.3-0.9 0.7-0.9 0.3 0 0.5 0.3 0.7 0.9 0.1 0.5 0.2 0.9 0.2 1.4 0 0.6-0.1 1.4-0.3 2.3 -0.2 0.9-0.4 1.6-0.7 2.1 0 0-0.2 0.2-0.4 0.4 -0.1 0-0.1 0.1-0.2 0.3 0 0.2 0 0.4-0.1 0.5 0 0-0.3 0.4-0.8 1.2 -0.3 0.4-0.6 0.9-1.1 1.5 -0.2 0.2-0.4 0.4-0.7 0.6 -0.4 0.3-0.8 0.5-1.2 0.7 -0.2 0.2-0.7 0.4-1.3 0.7 -0.5 0.1-0.7-0.2-0.7-0.8 0-0.3 0-0.5 0.1-0.7 0-0.1 0.4-0.4 1.1-0.8 0.3-0.2 0.8-0.6 1.5-1 0.2-0.3 0.7-0.8 1.5-1.6l0.5-0.4c0.3-0.2 0.5-0.4 0.5-0.5 0-0.3-0.1-0.6-0.2-0.9 -0.1-0.3-0.2-0.5-0.3-0.5 -0.7 0-1.4-0.1-1.9-0.2 -1.4-0.4-2.1-0.9-2.1-1.5 -0.1-0.2-0.3-0.5-0.4-0.9 -0.1-0.8 0.1-1.4 0.6-1.9 0.1 0 0.3-0.1 0.5-0.1 0.2-0.2 0.5-0.6 1-1.3 0.1-0.1 0.3-0.3 0.7-0.6 0.2-0.2 0.4-0.4 0.4-0.6 0-0.1 0-0.2-0.2-0.3 -0.2-0.1-0.4-0.3-0.5-0.3 -0.4-0.3-0.8-0.6-1.1-0.9 -0.4-0.3-0.5-0.7-0.5-1.2 0-0.8 0.4-1.6 1-2.2 0.3-0.3 0.8-0.5 1.5-0.9 0.2-0.1 0.2-0.2 0.2-0.3 0-0.2 0-0.3 0-0.2 0.2-0.3 0.4-0.9 0.7-1.6 0-0.3 0-0.7 0.1-1.2 0.1-0.2 0.3-0.4 0.6-0.4 0.3 0 0.6 0.1 0.7 0.2 0.1 0.1 0.3 0.3 0.5 0.6 0.2 0.3 0.3 0.5 0.3 0.7 0 0.4-0.3 0.9-0.9 1.6 -0.3 0.3-0.6 0.5-0.8 0.6 -0.3 0-0.5 0-0.7 0.1 -0.4 0.1-0.4 0.2-0.2 0.4 0.1 0 0.1 0.1 0.1 0.1 0 0.2-0.2 0.4-0.5 0.9 -0.3 0.3-0.5 0.6-0.5 0.6 0 0.1 0.1 0.3 0.3 0.8 0.2 0.5 0.3 0.7 0.4 0.8 0 0 0.3 0.1 0.7 0.2 0.4 0.1 0.7 0.1 0.8 0.1 0.3 0 0.5-0.2 0.7-0.7 0.2-0.3 0.3-0.6 0.2-0.8 0 0-0.1-0.2-0.2-0.5 -0.1-0.3-0.1-0.5-0.1-0.5 0-0.5 0.2-0.7 0.6-0.7 0.4 0 0.7 0.1 0.9 0.4S226.7 314.1 226.7 314.5zM236.1 328.6c0 0.2-0.1 0.4-0.3 0.6 -0.2 0.2-0.4 0.3-0.6 0.3 -0.4 0-0.8-0.2-1.3-0.8 -0.5-0.5-0.8-0.7-0.8-0.7 -0.1 0-0.2 0-0.3 0.1 -0.2 0-0.3 0-0.4 0 -0.1 0-0.3 0.2-0.6 0.6 -0.1 0.2-0.4 0.4-0.9 0.6 -0.4 0.2-1.2 0.4-2.3 0.9 -0.4 0.2-0.9 0.4-1.6 0.7 -0.6 0.3-1 0.4-1.3 0.4 -0.5 0-0.7-0.2-0.7-0.7 0-0.3 0.1-0.5 0.1-0.6 0.1 0 0.5-0.3 1.3-0.8 0.9-0.5 1.3-0.8 1.4-1.1 0-0.3 0.1-0.7 0-1.5 0-1.5 0.2-2.2 0.5-2.2 0.2 0 0.5 0.2 0.7 0.6 0.2 0.3 0.3 0.6 0.3 0.8 0 0 0 0.1-0.1 0.3 -0.1 0.2-0.1 0.3-0.1 0.4 0 0.4 0.1 0.7 0.4 1 0.2 0.2 0.4 0.3 0.7 0.3 0.3 0 0.6-0.1 0.9-0.2 0.3-0.2 0.6-0.3 0.7-0.5 0.1-0.2 0.2-0.4 0.1-0.8 0-0.2 0-0.5-0.1-0.9 -0.1-0.1-0.2-0.4-0.3-0.8 0-0.4 0.1-0.7 0.5-0.7 0.4 0 0.8 0.2 1 0.6 0.2 0.2 0.4 0.4 0.7 0.6 0.2 0.4 0.6 0.9 1.1 1.5 0.2 0.3 0.6 0.6 0.9 1C236 328 236.1 328.3 236.1 328.6zM235.2 315.4c0 0.1 0 0.3-0.1 0.7 -0.1 0.4-0.1 0.8-0.1 1.2 0 0.1 0 0.6 0.1 1.3l0.1 1c0 0.4-0.1 0.8-0.3 1.2 -0.2 0.2-0.4 0.4-0.6 0.6 -0.3 0.7-0.7 1-1.2 1 -0.6 0-1.1-0.1-1.6-0.3 -0.2-0.1-0.4-0.2-0.7-0.3 -0.1 0-0.1 0.1-0.2 0.3 -0.1 0.1-0.2 0.2-0.2 0.2 -0.1 0.1-0.3 0.1-0.6 0.3 -0.2 0-0.4 0.2-0.7 0.4 -0.1 0.3-0.1 0.5-0.2 0.7 -0.1 0.4-0.3 0.5-0.6 0.5 -0.2 0-0.4-0.2-0.5-0.5 0 0 0-0.3-0.1-0.8 0-1 0-2.5-0.1-4.6l0-2.3c0 0 0-0.1 0.1-0.5 0.1-0.4 0.1-0.6 0-0.8 -0.1-0.3-0.1-0.6-0.1-0.9 0-1.3 0.7-2 2.1-1.9 0.2 0 0.4-0.1 0.6-0.3 0.2-0.2 0.3-0.4 0.3-0.6 0-0.4 0-0.7-0.1-0.9 -0.1-0.2-0.2-0.6-0.3-1 0-0.3 0.1-0.6 0.3-1 0.3-0.4 0.6-0.6 0.9-0.6 0.2 0 0.5 0.2 0.7 0.5 0.2 0.3 0.4 0.6 0.3 0.8 0 0.1-0.1 0.3-0.2 0.7 0 0.2-0.1 0.4-0.2 0.6 -0.1 0.2-0.1 0.3-0.1 0.4 0.1 0.2 0.1 0.4 0.2 0.7 0.1 0.3 0.2 0.5 0.3 0.5 0 0 0.2 0 0.4 0.1 0.3 0.1 0.7 0.2 1.2 0.5 0.6 0.3 0.9 0.8 0.9 1.4 0 0.1 0 0.4 0 0.9C235.2 314.9 235.2 315.2 235.2 315.4zM233.7 319.5c0-0.4 0-0.6-0.1-0.7 -0.4-0.6-0.7-0.9-1.1-1 -0.3-0.1-0.5-0.2-0.8-0.2 -0.2-0.1-0.4-0.2-0.5-0.2 -0.3 0-0.5 0-0.6 0.1 -0.2 0.3-0.5 0.6-1.1 1 -0.4 0.3-0.7 0.6-0.7 1.1 0 0.2 0.3 0.5 1 0.9 0.5 0.3 0.9 0.5 1.2 0.6 0 0 0.1 0 0.3-0.1 0.2-0.1 0.4-0.1 0.5-0.1 0.2 0 0.5-0.1 0.7-0.1 0.5-0.3 0.8-0.5 0.9-0.6C233.7 320.2 233.7 319.9 233.7 319.5zM233.9 315.2c0-0.4-0.2-0.8-0.7-1.2 -0.4-0.4-0.8-0.6-1.1-0.6 -0.8 0-1.2 0-1.4 0 -0.2 0.1-0.5 0.2-0.9 0.4 -0.5 0.5-0.8 0.9-0.8 1.4 0 0.5 0 0.8 0.1 0.9 0.1 0.2 0.3 0.3 0.6 0.4 0.2 0 0.4 0 0.5 0.1 0.2 0.1 0.4 0.3 0.7 0.4 0 0 0.1-0.1 0.2-0.2 0.1-0.1 0.4-0.2 0.8-0.3l0.9 0c0.2 0 0.4-0.1 0.6-0.4C233.8 315.6 233.9 315.4 233.9 315.2zM243.8 324.2c0 0.8-0.2 1.4-0.4 1.8l-0.4 0.5c-0.1 0.6-0.5 1-1.2 1.4 -0.4 0.2-0.8 0.4-1.4 0.5 -0.6 0.1-0.9 0.2-1.2 0.3 -0.3 0.1-0.6 0.4-0.8 0.9 0 0.2 0 0.7 0 1.4 0 0.9-0.2 1.4-0.6 1.4 -0.3 0-0.5-0.2-0.7-0.6 -0.2-0.4-0.3-0.7-0.3-1.1l0-3.6 -0.1-2.5c0-0.3 0-0.8 0.1-1.7 0-0.2 0-0.3 0.1-0.4 0.1-0.1 0.1-0.2 0.1-0.2 0 0-0.1-0.2-0.2-0.5 -0.1-0.3-0.1-0.5-0.1-0.6 -0.1-0.5-0.2-1-0.1-1.7 0-1.4 0.1-2.8 0.1-4.2 0.1-0.3 0.2-0.7 0.3-1.3 0-0.3-0.1-0.6-0.3-0.8 -0.1-0.3-0.2-0.5-0.2-0.6 0-0.3 0-0.6-0.1-1.1 0-0.4 0-0.8 0-1 0-1.2 0.3-1.8 1-1.9 0 0 0.1 0.1 0.4 0.2 0.2 0.1 0.4 0.2 0.6 0.3 0 0 0.3 0 1 0.1 1.2 0.1 2.2 0.7 3.2 1.5 0.4 0.4 0.6 1.1 0.6 1.9 0 0.2-0.1 0.5-0.4 1 -0.2 0.5-0.4 0.8-0.4 0.9 0 0 0 0.1 0 0.3 0.1 0.1 0.1 0.2 0.1 0.2 0 0.6-0.4 1.2-1.2 1.9 -0.8 0.7-1.2 1-1.1 1.1 0 0.1 0.1 0.3 0.2 0.4l0.4 0.3c0.3 0.3 0.5 0.6 0.6 1.1 0.1 0.2 0.3 0.4 0.7 0.6 0.3 0.1 0.6 0.4 0.8 0.8 0.1 0.2 0.3 0.5 0.3 0.9C243.7 323.3 243.8 324 243.8 324.2zM242.1 314.2c-0.1-0.2-0.3-0.6-0.5-1 0-0.3 0-0.6-0.1-1.1 -0.3-0.9-1-1.3-2-1.2 -0.2 0-0.5 0.2-0.8 0.5 -0.2 0.4-0.3 0.7-0.3 1.1 0 0.2-0.1 0.5-0.3 0.7 -0.2 0.3-0.3 0.4-0.3 0.5 0.1 0.1 0.2 0.3 0.3 0.7 0 0.5 0.1 1.1 0.3 1.9 0 0.1 0.1 0.1 0.2 0.1 0.6 0 1.2-0.1 1.7-0.4 0.1 0 0.5-0.4 1.2-1 0.1-0.1 0.2-0.2 0.4-0.3C242 314.6 242.1 314.4 242.1 314.2zM242.1 325.1c0-0.3 0-0.8 0-1.5 0-0.1 0-0.4-0.1-0.9 -0.1-0.4-0.1-0.8-0.1-1 0-0.3-0.1-0.6-0.3-0.9 -0.2-0.3-0.5-0.5-0.7-0.6 -0.7-0.2-1.3-0.3-1.7-0.3 -0.4 0-0.6 0.2-0.7 0.6 0 0.4-0.1 0.8-0.1 1.1 0 0.1-0.1 0.2-0.2 0.4 -0.1 0.1-0.2 0.2-0.2 0.3 0.4 0.3 0.7 0.6 0.7 0.9 0 0.2 0 0.5-0.1 0.7 0 0.3 0 0.5 0 0.7l0 1.2c0.2 0.4 0.6 0.6 1.2 0.6 0.2 0 0.5-0.1 1-0.2C241.6 326 242 325.7 242.1 325.1z" class="b"/><path d="M273.2 329.7c0 0.3-0.3 0.8-1 1.4 -0.7 0.6-1.2 1-1.6 1.1 -1.2 0.4-2.2 0.6-3.1 0.6 -6.8 0-10.3-1-10.5-3 0-0.6-0.1-1.4-0.1-2.5 0-0.4 0-0.6-0.1-0.7 -0.1-0.2-0.5-0.3-1.1-0.3l-0.2 0c-0.1 0-0.3 0-0.4 0 -0.2 0-0.4 0-0.6-0.1 -0.2-0.1-0.3-0.2-0.4-0.2 -0.2 0-0.5 0.1-0.9 0.4 -0.2 0.1-0.6 0.3-1.3 0.4 -0.7 0.1-1.2 0.1-1.5 0.1 -0.3 0-0.5-0.1-0.6-0.3 -0.1-0.2-0.2-0.4-0.2-0.6 0-0.7 0.7-1.1 2.2-1.1 0.9 0 1.5 0.2 1.8 0.5 0 0 0.2 0 0.5 0 0.1 0 0.3-0.1 0.5-0.3 0.2-0.2 0.5-0.3 0.7-0.4 0.3 0 0.6-0.1 0.9-0.2 0.4-0.1 0.7-0.5 0.8-1.1 0-0.2 0-0.4-0.1-0.4 -0.1 0-0.1-0.2-0.1-0.4 0-0.5 0.2-1 0.5-1.6 0.1-0.2 0.3-0.3 0.5-0.3 0.2 0 0.5 0.1 0.6 0.3 0.2 0.2 0.3 0.4 0.3 0.7 -0.1 0.6-0.2 1-0.2 1.1 0 0.6 0.2 1 0.6 1.2 0.2 0.1 0.7 0.1 1.4 0.1 0.6 0 2.9-0.2 6.8-0.7 0.9-0.1 2.1-0.3 3.4-0.4 1.4 0 2.1 0.2 2.1 0.7 0 0.2-0.2 0.5-0.5 0.7 -0.3 0.2-0.7 0.4-1.2 0.4 -0.6 0-1.4 0-2.5 0.1 -2.5 0.3-4.6 0.5-6.4 0.5 -0.4 0-1.2 0.1-2.4 0.2 -0.3 0.1-0.6 0.3-0.9 0.5 -0.4 0.4-0.5 0.7-0.5 1.1 0 0.6 0.1 1.1 0.1 1.4 0.2 0.6 1 1 2.3 1.3 1.2 0.3 2.9 0.5 4.9 0.5 1.3 0 2.2 0 2.6-0.1 0.7-0.2 1.5-0.6 2.4-1.2 0.8-0.6 1.3-0.9 1.5-0.9C272.9 328.7 273.2 329 273.2 329.7zM270.5 316.3c0.1 1 0 1.9-0.4 2.7 -0.4 0.8-1.4 1.2-2.9 1.2 -2.4 0-4.3 0-5.6-0.1l-2.1-0.1c0 0-0.3 0-0.8 0 -0.5 0-0.7 0-0.7 0 -0.2 0-0.5 0-0.9-0.1 -0.4-0.1-0.6-0.1-0.6-0.1 -0.1 0-0.4 0.1-0.8 0.1l-0.6 0.2c-0.2 0-0.5 0-0.9 0 -0.4 0-0.7-0.1-0.9-0.1 -1.3 0-1.9-1.6-2-4.9 0-1 0.1-1.8 0.2-2.5 0-0.2 0.1-0.3 0.3-0.5 0.2-0.2 0.3-0.3 0.3-0.4 0-0.1 0-0.2-0.1-0.4 0.1-0.7 0.6-1.2 1.5-1.4 0.1 0 0.9-0.1 2.2-0.2 0.7-0.1 1.5-0.1 2.6-0.1 0.3 0 0.6-0.1 0.8-0.4 0.3-0.3 0.5-0.5 0.5-0.8 -0.1-0.3-0.2-0.7-0.2-1.3 0.1-0.5 0.4-0.8 0.9-0.8 0.2 0 0.5 0.1 0.7 0.3 0.4 0.1 0.7 0.4 0.7 0.8 0 0.4-0.1 0.8-0.3 1 -0.2 0.3-0.3 0.4-0.3 0.4 0 0.1 0 0.3 0.1 0.4 0.1 0.1 0.3 0.2 0.4 0.2l1.2 0c0.3 0 0.7 0.1 1.2 0.3 0.2 0.2 0.4 0.3 0.6 0.3 -0.2 0 0.1-0.1 0.7-0.2 0.2 0 0.6-0.1 1.2-0.1 0.6 0 1.1 0.1 1.4 0.2l0.8 0.3c0.6 0.2 1 0.8 1.5 1.8 0.1 0.2 0.1 0.4 0.1 0.8 0 0.5-0.1 0.7-0.1 0.6C270.4 314.7 270.5 315.6 270.5 316.3zM268.8 314.4c0-0.7 0-1.2-0.1-1.5 0 0-0.1-0.2-0.3-0.6 -0.3-0.6-0.9-0.8-2-0.8 -0.1 0-0.2-0.1-0.4-0.3 -0.2-0.2-0.5-0.3-0.7-0.3 -0.2 0-0.3 0-0.5 0.1 -0.1 0.1-0.3 0.2-0.7 0.3 -0.1 0-0.4 0-0.7 0 -0.3 0-0.5-0.1-0.5-0.1l-5.6 0c-1.2 0-1.9 0.1-2.1 0.1 -0.2 0-0.4 0.1-0.8 0.2 -0.3 0.1-0.5 0.1-0.7 0.1 -0.1 0-0.3 0.1-0.6 0.2 -0.3 0.1-0.4 0.1-0.5 0.1 -0.3 0-0.3 0.2-0.2 0.4 0.1 0.2 0.1 0.5 0.1 0.8 0 0.3 0 0.5 0.1 0.6 0.1 0.3 0.6 0.4 1.4 0.4 0 0 0.1 0 0.3 0 0.2 0 0.4 0 0.5 0 0.5 0 0.9 0.1 1.2 0.2 0.4 0.2 0.5 0.2 0.6 0.2 0.2-0.2 0.7-0.3 1.5-0.5l3.1 0c0.4 0 1.4 0 3-0.1 1.3 0 2.1 0.1 2.3 0.4 0.2 0.2 0.3 0.5 0.3 0.8 0 0.2-0.3 0.4-0.8 0.6 -0.4 0.1-0.7 0.2-0.9 0.2l-3.2-0.1 -2.1-0.1c-0.1 0-0.8 0-2.1 0 -0.3-0.1-0.5-0.2-0.7-0.3 -0.2-0.1-0.3-0.2-0.4-0.2 -0.1 0-0.2 0.1-0.3 0.2 -0.2 0.1-0.4 0.2-0.6 0.2 -0.2 0.1-0.3 0.1-0.5 0.1 -0.4 0-0.8 0.1-1.3 0.2 -0.8 0.2-1.2 0.5-1.2 0.9 0 0.8 0.4 1.4 1.1 1.8 0.6 0.1 1.2 0.3 1.8 0.5 0.5 0.2 0.7 0.3 0.6 0.3 0.1-0.1 0.3-0.1 0.4-0.2 0.5-0.1 1-0.2 1.6-0.2 0 0 0.4 0 1.2 0 0.8 0 1.5 0 2.1 0 1.1 0 2.2 0 3.4 0 0.3 0 0.9-0.1 1.7-0.3 1.1-0.2 1.6-0.6 1.6-1.3C268.6 317 268.6 316.1 268.8 314.4z" class="b"/></svg>
