<svg xmlns="http://www.w3.org/2000/svg" width="425" height="425" viewBox="0 0 425.2 425.2"><style>.a{fill:#F9B80E;}.b{fill:#FFF;}</style><path d="M186.9 34c0 0-45.5-3.5-80.2 17 -48.9 28.9-83 102.9-79.3 172.3 3.7 69.4 71.3 204.5 245 160.6 0 0 123.6-13.9 112.9-139.4C374.6 118.9 357.9 115.7 314.2 82.9 270.6 50.1 223.7 27.2 186.9 34z" class="a"/><path d="M243.6 215.8c-1.8 7-8.5 0.6-19.8 6.3 -13.1 6.5-24.2 25.9-24.2 25.9s-9.6-19.4 21.1-37C226 207.9 246.6 203.9 243.6 215.8z" class="b"/><path d="M224 224.1c0 0-8.4 3.8-16.3 14.8 0 0-1.5 31.9 33.7 32.5 0 0 28.6-3.4 29.3-24.7 0 0 6.5-26.8-25.4-37.2 0 0 3.8 9.5-3.4 11.8C237.1 222.9 233 218.3 224 224.1z" class="b"/><path d="M394.7 245.7c0 0-6 6.6-4.3 12s4.9 6.5 7.1 3.8C399.7 258.8 394.7 249 394.7 245.7z" class="b"/><path d="M158.6 348.3c-0.2 0.1-0.4 0.1-0.7 0.1 -0.3 0-0.6 0-1-0.1 -0.7 0-1.1 0-1.2 0.2 -0.1 0.1-0.2 0.5-0.2 1.2 -0.1 1.1-0.1 1.6-0.1 1.6 0 0.2 0 0.6 0.1 1.1 0.1 0.5 0.1 0.9 0.1 1.1 0 0.3 0 0.6-0.1 1.1 0 0.5-0.1 0.9-0.1 1.1 0 0.6 0.1 1.7 0.4 3.2 0 0.3 0 0.5-0.2 0.7 -0.2 0.2-0.4 0.3-0.6 0.2 -0.3 0-0.5 0-0.5 0 -0.3 0-0.5-0.1-0.6-0.3 -0.1-0.2-0.2-0.4-0.1-0.6 0.2-1 0.2-2.4 0.2-4.2 0-2.4 0-3.9 0-4.4 0-0.1 0-0.4 0.1-0.9 0-0.2 0-0.4-0.2-0.6 -0.2-0.2-0.4-0.2-0.7-0.2 -1.1 0-1.9 0.1-2.2 0.1 -0.3 0-0.5 0-0.6-0.1 -0.1-0.1-0.2-0.2-0.1-0.4 0.1-0.2 0.2-0.4 0.4-0.5 0.2-0.2 0.5-0.2 0.7-0.2 0.9 0 2 0 3.5 0.1 1.6 0.1 2.8 0.1 3.4 0.1 0.3 0 0.5 0 0.6 0.1 0.2 0.1 0.2 0.2 0.2 0.3C158.9 348.1 158.8 348.2 158.6 348.3z" class="b"/><path d="M168.1 347.4c0 0 0.3 0.1 0.8 0.3 0.5 0.1 1 0.5 1.5 1.1 0.4 0.4 0.6 0.8 0.9 1.3 0.3 0.6 0.4 1.1 0.4 1.4 0 0.6-0.3 1.2-0.8 1.6 -0.1 0.1-0.4 0.3-1 0.6 -0.5 0.2-0.7 0.5-0.7 0.7 0 0.3 0.3 0.8 1 1.5 1.5 1.4 2.5 2.5 2.9 3.1 0.1 0.2 0.2 0.4 0.1 0.6 -0.1 0.2-0.2 0.2-0.5 0.3 -0.2 0-0.5-0.1-0.7-0.2 -0.2-0.1-0.4-0.3-0.6-0.5 -0.4-0.6-1.1-1.4-1.9-2.2 -1.1-1-1.8-1.7-2.1-2.1 -0.2-0.2-0.4-0.3-0.6-0.4 -0.2 0-0.4 0.1-0.4 0.3 0 0.2 0 0.8 0 1.6 0 0.3 0.1 0.7 0.2 1.2 0.2 0.6 0.3 1 0.3 1.2 0 0.2 0 0.4-0.2 0.6 -0.1 0.1-0.3 0.2-0.6 0.2 -0.1 0-0.2 0-0.4 0 -0.2 0-0.3 0-0.4 0 -0.1 0-0.2 0-0.2 0 -0.1 0-0.1-0.4-0.1-1 0-0.3 0-2 0-5 -0.1-3-0.1-4.8-0.2-5.2l-0.1-1c0 0 0.3 0 1 0C167.4 347.4 168.1 347.4 168.1 347.4zM170.3 349.8c-0.1-0.5-0.4-0.9-0.8-1.2 -0.7-0.5-1.4-0.7-2.1-0.5 -0.2 0.1-0.4 0.2-0.5 0.4 -0.1 0.2-0.1 0.3-0.1 0.4 0 0.1 0 0.1 0 0.3 0 0.4 0 1.1-0.1 1.9 -0.1 0.9-0.2 1.6-0.2 1.9 0 0.3 0.1 0.5 0.3 0.6 0.2 0.2 0.4 0.2 0.7 0.1 0.4-0.1 0.8-0.4 1.2-0.7 0.6-0.5 1.1-1 1.5-1.6C170.4 350.9 170.5 350.4 170.3 349.8z" class="b"/><path d="M180.5 353.6c0.2 1.9 0.4 3.6 0.8 5.2 0.1 0.2 0 0.5-0.1 0.6 -0.1 0.1-0.3 0.2-0.6 0.2 -0.2 0-0.4 0-0.6 0 -0.3 0-0.5-0.1-0.6-0.2 -0.1-0.2-0.2-0.4-0.1-0.6 0.3-0.8 0.4-1.4 0.5-1.9 0.5-3 0.4-5.9-0.3-8.8 -0.1-0.3 0-0.5 0.1-0.7 0.1-0.2 0.3-0.3 0.5-0.3 0.2 0 0.4 0.1 0.6 0.2 0.1 0.2 0.2 0.4 0.2 0.7C180.5 350.4 180.4 352.3 180.5 353.6z" class="b"/><path d="M192.7 348c-0.2 0-0.4 0-0.6-0.1 -0.3-0.1-0.6-0.2-0.9-0.2 -0.7 0-1.3 0.3-1.9 0.9 -0.5 0.6-0.7 1.2-0.6 1.9 0.1 0.5 0.6 1.2 1.5 2.1 0.2 0.2 0.5 0.4 0.9 0.7 0.4 0.3 0.7 0.5 0.9 0.7 0.7 0.7 1 1.5 1.1 2.4 0.1 1-0.3 1.8-1.1 2.3 0 0-0.1 0.1-0.2 0.1 -0.1 0-0.2 0.1-0.2 0.1 -0.1 0.1-0.2 0.2-0.4 0.4 -0.2 0.2-0.3 0.3-0.4 0.3 -0.7 0.3-1.5 0.3-2.6 0.1 -0.3 0-0.5-0.2-0.7-0.4 -0.2-0.2-0.3-0.4-0.3-0.7 0-0.2 0-0.4 0.1-0.5 0.1-0.1 0.2-0.2 0.3-0.1 0.2 0.2 0.3 0.3 0.4 0.3 0.9 0.4 1.5 0.5 2 0.3 0.6-0.2 1.1-0.6 1.5-1.1 0.4-0.6 0.5-1.3 0.2-2 -0.3-0.8-1.2-1.6-2.5-2.2 -0.1-0.1-0.6-0.4-1.3-1.2 -0.3-0.3-0.5-0.6-0.6-0.7 -0.2-0.4-0.2-0.8-0.2-1.4 0-0.5 0.1-0.9 0.2-1.3 0.3-0.7 0.9-1.2 1.9-1.4 0.8-0.2 1.7-0.3 2.9-0.1 0.3 0 0.5 0.1 0.7 0.2 0.2 0.1 0.3 0.2 0.3 0.4C193 347.9 192.9 348 192.7 348z" class="b"/><path d="M204.3 347.1c1.5-0.1 2.9 0 4 0.5 1.2 0.5 2 1.2 2.4 2.1 0.4 0.8 0.5 2 0.6 3.5 0 1.5-0.2 2.6-0.6 3.4 -0.3 0.6-0.9 1.2-1.9 1.7 -0.9 0.6-1.7 0.9-2.5 1.1 -1.5 0.4-3 0.1-4.4-1 -1-0.7-1.8-1.6-2.4-2.7 -0.4-0.7-0.6-1.6-0.7-2.6 0-0.9 0.1-1.8 0.4-2.6 0.2-0.6 0.4-1 0.5-1.2 0 0 0.1-0.1 0.2-0.2 0.1-0.1 0.2-0.2 0.3-0.2 1.1-1.2 2.4-1.8 3.9-1.8H204.3zM208.8 356.6c0.6-0.9 1-1.9 1.2-3 0.2-1.3 0-2.3-0.6-3.1 -0.3-0.3-0.9-0.9-1.9-1.6 -0.5-0.4-1-0.6-1.5-0.9 -0.1 0-0.2-0.1-0.4-0.2 -0.2-0.1-0.4-0.2-0.4-0.2 -0.3-0.1-0.6-0.2-0.8-0.1 -0.1 0-0.2 0.1-0.4 0.2 -0.2 0.1-0.3 0.2-0.3 0.2 -0.1 0-0.2 0.1-0.4 0.1 -0.2 0-0.3 0.1-0.4 0.1 -0.6 0.4-1.2 1-1.7 1.7 -0.1 0.2-0.2 0.4-0.3 0.6 -0.1 0.2-0.1 0.3 0 0.3 0 0 0 0.1 0 0.2 0 0-0.1 0.2-0.2 0.6 -0.3 0.9-0.3 1.9-0.1 2.8 0.2 0.9 0.6 1.7 1.1 2.4 1 1.3 2.1 1.9 3.4 1.8C206.7 358.6 207.9 357.9 208.8 356.6z" class="b"/><path d="M223.7 347.9c0.2 0.5 0.5 1.2 0.9 1.9 0.5 0.9 0.9 1.6 1 1.9 0.1 0.2 0.4 1 1 2.4 0.4 1 0.8 1.8 1.1 2.4 0.8 1.5 1.1 2.2 1.1 2.1 0.1 0.2 0.1 0.5 0.1 0.6 -0.1 0.2-0.2 0.2-0.4 0.2 -0.2 0-0.4-0.1-0.6-0.3 -0.2-0.2-0.3-0.4-0.4-0.7 -0.1-0.4-0.4-1.1-0.8-2.1 -0.1-0.2-0.3-0.5-0.5-0.7 -0.3-0.2-0.5-0.3-0.8-0.3 -0.3 0-1.3 0-2.8 0 -0.1 0-0.2 0-0.4 0 -0.2 0-0.3 0-0.4 0 -0.3 0.1-0.7 0.3-1 0.8 -0.2 0.3-0.4 1.1-0.7 2.5 0 0.3-0.2 0.5-0.4 0.6 -0.2 0.2-0.5 0.3-0.8 0.3 -0.2 0-0.5 0-0.8 0.1 -0.3 0-0.5 0-0.7 0 -0.2-0.1-0.2-0.1-0.1-0.2 0.2-0.2 0.3-0.3 0.3-0.3 0.3-0.4 0.7-1.1 1.2-2.1 0.2-0.3 0.4-0.8 0.8-1.4 0.4-0.6 0.7-1.1 0.8-1.4 0.3-0.5 0.6-1.3 1-2.3 0.4-1.2 0.7-2 0.9-2.4 0.1-0.2 0.2-0.4 0.4-0.7 0.2-0.3 0.3-0.5 0.4-0.7 0.3-0.6 0.4-0.9 0.4-0.9C223.4 346.9 223.5 347.3 223.7 347.9zM225.5 353.9c0-0.2-0.1-0.5-0.3-1.1 -0.1-0.3-0.2-0.7-0.4-1.2 -0.5-1.4-0.8-2.1-0.9-2.1 -0.3-0.1-0.5 0.1-0.7 0.6 -0.1 0.2-0.1 0.4-0.2 0.6 -0.1 0.3-0.1 0.5-0.1 0.5 -0.3 0.8-0.6 1.6-1.1 2.5 -0.1 0.2-0.1 0.5 0 0.6 0.1 0.2 0.3 0.3 0.6 0.3 0.1 0 0.4 0 0.7-0.1 0.3 0 0.5 0 0.7 0 0.1 0 0.3 0 0.7 0 0.3 0 0.5 0 0.6 0C225.4 354.6 225.6 354.3 225.5 353.9z" class="b"/><path d="M236.8 347c0.6 0 1.1 0 1.4 0.1 1 0.1 1.8 0.3 2.3 0.7 0.9 0.7 1.3 2.1 1.3 4 0 0.6-0.1 1-0.4 1.2 -0.1 0.1-0.5 0.3-1.2 0.6 -0.9 0.4-1.4 0.6-1.7 0.6 -0.2 0-0.4 0-0.7 0 -0.3 0-0.5 0-0.7 0 -0.5 0.1-0.7 0.3-0.8 0.6 -0.1 0.2 0 0.9 0.3 2.1 0 0.1 0.1 0.3 0.1 0.6 0 0.2 0.1 0.4 0.1 0.5 0.1 0.3 0 0.5-0.2 0.8 -0.1 0.3-0.4 0.4-0.6 0.5 -0.2 0-0.3 0.1-0.4 0.1 -0.3 0-0.5-0.1-0.6-0.3 -0.2-0.2-0.2-0.5-0.2-0.7 0.3-3 0.2-6.6-0.2-10.7 0-0.3 0-0.5 0.2-0.6 0.2-0.2 0.4-0.2 0.6-0.2C235.7 346.9 236.2 346.9 236.8 347zM240.5 350.4c0.2-0.9-0.1-1.7-0.7-2.2 -0.2-0.2-0.5-0.3-1-0.6 -0.5-0.2-0.9-0.3-1.2-0.4 -0.1 0-0.3 0-0.5 0.1 -0.4 0.1-0.6 0.2-0.7 0.2 -0.1 0.1-0.2 0.5-0.1 1.1 0.1 2.1 0.2 3.3 0.1 3.8 0 0.3 0.1 0.5 0.2 0.8 0.2 0.2 0.3 0.4 0.6 0.3 0.2 0 0.5-0.1 0.8-0.3 0.6-0.3 1.1-0.6 1.4-0.8C239.9 352 240.3 351.3 240.5 350.4z" class="b"/><path d="M225.7 135.9c-5.6 15.4-17.3 18.3-29.7 22.4 -12.4 4.1-37.9 25.7-37.9 25.7 7.6-23.8 25.6-24.1 32.4-35.8 6.8-11.7-26.8-35.7-6.4-32 22.3 4.1 23.5 11.2 45.3 13.9 0 0 91.4 12 136.5 82.2 0 0 24.7 35.6 23.4 56.5l-5.1 14.4c0 0 7.8-45.4-54-102.6 -21.3-19.7-47.1-40.1-100.9-44.3L225.7 135.9z" class="b"/><path d="M323.2 192.2c0 0 2.2 1.6 3.9 10.5 1.7 8.8 2.2 31.2 19.9 28.6 0 0 10.3 0.4 6.3-13.5C349.3 203.7 323.2 192.2 323.2 192.2z" class="b"/><path d="M295.3 228.4c0 0 2.1 1.3 10-0.3 7.9-1.6 26.7-8.6 30.5 7 0 0 3.9 8.4-9.1 9.8C313.7 246.2 295.3 228.4 295.3 228.4z" class="b"/><path d="M356 213.9c0 0 3.7 2.6 1.2 11.1 -2.5 8.5-12.1 28.5 4.2 34 0 0 8.5 4.9 11.4-9.2C375.5 235.8 356 213.9 356 213.9z" class="b"/><path d="M314.9 248.6c0 0 1.9 1.6 10.1 1.3 8.2-0.3 28.3-4.5 29.6 11.9 0 0 2.5 9.1-10.8 8.4C330.6 269.6 314.9 248.6 314.9 248.6z" class="b"/><path d="M305.4 179.2c0 0 12 4.6 15.8 12.3 3.8 7.8 3.6 12.7 3.5 16.8 0 0-0.5 8.1-10.6 2.9 -10.1-5.2-8.1-17.1-8.1-17.1S308.6 185.1 305.4 179.2z" class="b"/><path d="M293.6 171.8c0 0 7.5 5.5 9.1 10.6 1.6 5.1 1.9 5.1 0.9 10.4 -0.9 5.3-7 6.8-11.3 0.6C287.9 187.1 296.1 182.3 293.6 171.8z" class="b"/><path d="M281.3 216c0 0 9.5 14.1 29.1 8.8 0 0 5.8-3.7 4.6-7.4 -1.2-3.7-3.3-5.9-8.7-6.5C300.9 210.3 284.6 221.5 281.3 216z" class="b"/><path d="M298.6 201.8c0 0 5.2 4.2 0.1 8.1 -5.1 3.9-19.5 6.4-26.5-4.9 0 0 6.1 0.9 9.4-0.7C285 202.7 290.7 195.9 298.6 201.8z" class="b"/><path d="M277.8 167.8c0 0 11.2 2.6 12.4 14.2 1.2 11.6-9.4 9.4-11.1 4.4S283.5 174.5 277.8 167.8z" class="b"/><path d="M279.1 191.6c0 0 7.3-1.1 8.3 6.2 0 0-7.5 13.4-24.8-3.4 0 0 5.4 1 7.7-0.1C272.7 193.3 279.1 191.6 279.1 191.6z" class="b"/><path d="M265.6 164.3c0 0 13 4.4 11.3 16.7 0 0-1.5 4.1-5.4 1.5 -3.9-2.6-5.8-5.8-4.9-14.4C266.5 168.1 267.9 165.8 265.6 164.3z" class="b"/><path d="M266.8 181.8c0 0 7.3 1.4 6.2 6.5 0 0-2.9 11.4-20.6-3.3 0 0 3.6 0.2 6.5-1.3C261.9 182.2 266.8 181.8 266.8 181.8z" class="b"/><path d="M303.8 234.7c0 0-5.1-7.2-19.2-8.9 0 0 10.8-0.2 21.3 8.9L303.8 234.7z" class="b"/><path d="M285.6 219.3c0 0-6.6-4.9-8.9-6 -2.3-1.1 13.1 7.9 15.1 5.5" class="b"/><path d="M275.2 207.7c0 0-4.8-4-9.2-6.9 0 0 11.8 8.1 13.3 6" class="b"/><path d="M266.6 197.2c0 0-7.3-6.4-17.7-6.8 0 0 6.1-1.6 19.1 6.8L266.6 197.2z" class="b"/><path d="M281.9 170.3c0 0-7.5-4.8-8.7-5.1 0 0 10.2 5.8 10.7 7.4" class="b"/><path d="M296 178.1c0 0-0.9-4.8-4.4-9C291.6 169.1 297.3 174.6 296 178.1z" class="b"/><path d="M312.3 183.7c0 0-12.1-8.8-14.2-11.5C298.1 172.1 307 181.4 312.3 183.7z" class="b"/><path d="M319.1 181.8c0 0 0.8 10.5 15.4 16.8C334.4 198.5 317.9 193 319.1 181.8z" class="b"/><path d="M232.1 153.7c0 0 19.8 7.2 33.7 20.3l0.1-1.3C265.8 172.7 257.4 159.7 232.1 153.7z" class="b"/><path d="M267.5 180.1l-1.8-3.2c0 0-16.9-14.2-51.9-11 -35 3.3-36.6 8.8-49.3 19.5 0 0 14.7-18 59.5-18.9C224 166.6 253.8 168 267.5 180.1z" class="b"/><path d="M267.4 180.5c0 0-20.1-16.9-54-10.8 0 0-30.3 6.6-50.4 29.5 0 0 29.7-26.7 53.4-28.5 0 0 24.2-5.8 47.6 10.6C264 181.4 265 180.2 267.4 180.5z" class="b"/><path d="M204.5 158.7c0 0 17.9-7.9 61.4 16.1l-0.1 1.3C265.7 176 230.2 155.3 204.5 158.7z" class="b"/><path d="M262.1 181.2c0 0-16.4-19.6-72.8 3.2 0 0 44.2-20 70.3-2.2L262.1 181.2z" class="b"/><path d="M258.2 181.8l-1 1.1c0 0-24.5-18.3-39 17.7C218.2 200.6 227.4 163.9 258.2 181.8z" class="b"/><path d="M256.3 183.4l-2 0.5c0 0-14.4-11.7-19.2 8.5C235.1 192.4 236.6 170.8 256.3 183.4z" class="b"/><path d="M338.5 234.8c0 0 4.4 7.1-1.9 10.2 0 0 8.8 0.6 11.5 3.6 0 0-3.1-6.8 1.5-12.5C349.6 236.2 340.4 237.8 338.5 234.8z" class="b"/><path d="M317.4 215.6c0 0 5.2 1.9 7.1 0.2 0 0 2.2 5.2 4.7 7.3 0 0-11.1-1.7-11.7 0C317.4 223.1 321 219.6 317.4 215.6z" class="b"/><path d="M300.8 200.9c0 0 2.6 4.4 2 6.3 0 0 4.1 1.1 4.4 1.9 0 0-3.2-6.4-3.2-9.6C304 199.4 301.7 202 300.8 200.9z" class="b"/><path d="M286.2 191.8c0 0 2.5 2.9 2.5 5.1 0 0 3-0.8 4.6 0.8 0 0-4.1-3.7-4.1-6.4C289.2 191.3 287.7 193.2 286.2 191.8z" class="b"/><path d="M274 184.8c0 0 2.3 1.3 3.4-0.4 0 0-0.8 3.2 2.1 5.4 0 0-3.2-0.5-5.7 0.7C273.8 190.5 275.9 185.9 274 184.8z" class="b"/><path d="M361.6 262.5l5.3 1.2c0 0 8.6 10.2 16.5 33.9l-3.2 14.3c0 0 1.5-24.1-18.2-45.3L361.6 262.5z" class="b"/><path d="M228 206.4c0 0-28.2 8.7-32.1 31.7C195.9 238 191.7 207.8 228 206.4z" class="b"/><path d="M235.8 206.7c0 0 15.5-1.7 24.5-3.4l5.2 0.2 4.9 4.1c0 0-4.4-4.3-23.1 2.4C247.3 210 246.5 207.5 235.8 206.7z" class="b"/><path d="M272.8 236c0 0 28.6-1.8 46.7 23.5 0 0 5.8 5.7 11.5 6.5 0 0-39.2 13.3-56.5-16.9C274.5 249.1 276.1 242.5 272.8 236z" class="b"/><path d="M273.7 253.2c0 0-4 13.1-18.7 18.9 0 0 6.7 27 36.1 22.7 0 0 22.9-4.2 22.8-23.8C313.8 270.9 283.6 273.5 273.7 253.2z" class="b"/><path d="M258.1 204c0 0 9 11 13.1 18.4 4.1 7.3 8.2 16 8.2 16l9.8 0.8c0 0-15.5-12-19.1-26.3l-5.3-7.8L258.1 204z" class="b"/><path d="M177.9 228.3l16.3-5 3.2-7.4 -29.4 5.1 -2.4 8.2C165.6 229.2 175.4 232.4 177.9 228.3z" class="b"/><path d="M165.6 234.1c0 0 8.2 2.4 13.1-0.9 0 0-4.1 5.7-2.4 15.5C176.4 248.8 160 248 165.6 234.1z" class="b"/><path d="M183.6 230.7c0 0-8.1 12.3-1.5 18 0 0 0.8 4.9 9 2.4l2.4-9.8c0 0-4.1-9.8-1.7-13.9L183.6 230.7z" class="b"/><path d="M160.7 235.8c0 0-2.4 10.6 5 13.1 0 0 0.9 6.5-6.5 7.4 -7.4 0.9-8.2-13-4.2-18L160.7 235.8z" class="b"/><path d="M148.5 245.6c0 0-1.6 6.6 8.3 14.7 0 0 0.9 9.8-4.9 8.2C146.2 266.9 136.3 255.5 148.5 245.6z" class="b"/><path d="M148.5 239.9c0 0-9-3.2-11.4 6.6 0 0-2.4 4.1 2.5 7.4C139.6 253.9 142.8 244 148.5 239.9z" class="b"/><path d="M168.7 250.2c0 0 3.6 1.3 8.7 1 0 0-5.2 5.2-2.4 11.7C175.1 263 163.6 259.7 168.7 250.2z" class="b"/><path d="M179.9 251.5c0 0-7.1 4.9-1 14.7 0 0 4.1 5.4 9 2.4 0 0 5.4-4.9 2.6-15C190.6 253.6 183.2 256.6 179.9 251.5z" class="b"/><path d="M194.3 247.3c0 0 1.9 4.9 4.4 6l3.3-3.6c0 0 5.5 5.7 1.1 11.4 0 0-3 6.3-8.2 1.4 0 0 0-6.3-1.4-8.7L194.3 247.3z" class="b"/><path d="M194.4 264.2c0 0-0.8 4.4-3.8 5.7 0 0 2.5 3.5 0.9 7.9 0 0 8.7-0.9 7.3-10.1C198.8 267.7 193.9 265.9 194.4 264.2z" class="b"/><path d="M205.6 260.6c0 0 0.3 2.2-4.3 5.2 0 0 0.6 2.7-1.1 6.5C200.2 272.4 211.4 271.2 205.6 260.6z" class="b"/><path d="M176.7 267c0 0 4.1 7.1 11.7 3.8 0 0 3.9 8.4-3.7 12.3C184.7 283.1 172.5 285.3 176.7 267z" class="b"/><path d="M190.4 280.3c0 0-1.1 3.5-6 5.5 0 0 6 4.6 9.8-3.1C194.2 282.8 190.2 283 190.4 280.3z" class="b"/><path d="M193.1 279.2c0 0 0.6 4.6 8.2 0.5 0 0 5.2-2.8 4.6-7.7 0 0-3.8 3-5.7 1.7C200.2 273.7 198 278.6 193.1 279.2z" class="b"/><path d="M165.5 256.5c0 0 2 8.2 9.6 9.2 0 0-1.3 5.5-0.2 11.4C174.9 277.1 163.9 275 165.5 256.5z" class="b"/><path d="M167.8 273.9c0 0 3 4.3 7.1 5.1 0 0 2.2 4.6 7.4 6.5C182.3 285.5 171.1 290.5 167.8 273.9z" class="b"/><path d="M183.4 287.4c0 0 2.7 1.3 4.4 1.3 0 0-1.6 4.4-4.9 4.1 -3.3-0.3-3.6-3.8-3.6-4.6L183.4 287.4z" class="b"/><path d="M163.6 257.6c0 0-3 3.3-4.9 3 0 0-4 13.4 8 17.7l-1.4-6.8C165.3 271.5 162.5 266 163.6 257.6z" class="b"/><path d="M161 277.2c0 0 3 3.8 6.8 3 0 0 1.4 7.1 9.3 7.9C177.1 288 165.9 290.8 161 277.2z" class="b"/><path d="M156.3 270.7c0 0 1.4 4.4 3.3 6.5 0 0 0 4.1 2.2 6.3 0 0-9.6-2.7-11.5-13.3C150.3 270.2 153.9 272.9 156.3 270.7z" class="b"/><path d="M140.7 256.1c0 0-1 8.2 8 13 0 0 0 3.3 2.2 7.1 0 0-14.4-1.3-14.8-22C136 254.2 136.6 257.2 140.7 256.1z" class="b"/><path d="M207.5 259c0 0 5.1 6.7 1.1 12.1 0 0 0.2 2.9-1.4 5.1 0 0 8.2-2.9 8.7-9.2 0 0-5.1-4.3-5.2-7.3C210.8 259.6 208.9 258.4 207.5 259z" class="b"/><path d="M169.2 216.5l8.6-0.9 -1.3-4.9C176.6 210.7 170.4 212 169.2 216.5z" class="b"/><path d="M179.4 210.7l1.2 4.5 6.9-1.3c0 0 0.4-4.9 2-4.9C189.6 209 182.7 204.2 179.4 210.7z" class="b"/><path d="M191.7 209.9l-1.6 2.9 8.2 0.4c0 0 2.4-3.7 4.5-3.3C202.7 209.8 197.8 207.4 191.7 209.9z" class="b"/><path d="M285.1 87.1c0 0 22.9 4 27.1 12.9 4.1 9 12.4 19.6-8.8 34.4 0 0-28.6 9.2-34.5-23.5l4.9 4.1c0 0-2-11.5-6.2-24.7 0 0 25.7 1.7 27.3 4.2C294.9 94.4 289.1 87.1 285.1 87.1z" class="b"/><path d="M250.3 95.9c0 0 7.4 3.2 9 9.4l0.4-6.5c0 0 8.1 1.1 11 9.2 0.3 0.9-4.6-1.1-4.6-1.1s0 17.3 11.8 26.9c0 0 0 6.5-6.5 4.9 0 0-15.6-8.1-28.7-10.5 0 0-10.7-7.3-0.1-21.3l2.5 3.3C245.1 110.2 243 101.6 250.3 95.9z" class="b"/><path d="M313.1 123.7c6.5-4.1 5.6-22.9 5.6-22.9l1.6 13.8 5.8-7.3c0 0-11.4 16.4-9.7 25.4 1.7 9 28 43.2 33.1 62.8l-10.7-10.6c0 0-17.4-41.6-26.4-49.7 0 0-20.4 5.8-28.6 7.5l13-6.6" class="b"/><path d="M326.3 155.6c0 0-11.5-5.7-33.5-4.7l4.1 4.1c0 0 17.7-2.5 30.1 2.8L326.3 155.6z" class="b"/><path d="M139.7 233.4l4.9 2.1c0 0-22.3 6.1-20 39.4 0 0-12.9-11.4-4.5-26.4C128.6 233.5 139.7 233.4 139.7 233.4z" class="b"/><path d="M135.4 232.9c0 0-12.3-3.2-22.6 10.5 0 0-4.9 9 3.4 21C116.2 264.4 109.3 247.2 135.4 232.9z" class="b"/><path d="M335.2 278.2c0 0-22.8 18.9-36.6 39.4 -13.8 20.5-3.9 37.6-3.9 37.6s-13.2-15.5 17.8-38.5c16.7-12.4 33-30.6 45.4-27 8.2 2.4 21.8 4.6 24 5.3 4.9 1.6-27.9-11.3-34.4-12.9C340.9 280.5 341.7 278.1 335.2 278.2z" class="b"/><path d="M344.2 294.1c0 0 8-5.4 12.5-2.2l17.5 3.2C374.2 295.1 346.3 292.4 344.2 294.1z" class="b"/><path d="M342.5 273.5c0 0 8.2 1 10.9-0.6 2.7-1.7 18 0.4 14.2 10.8C367.6 283.7 353.4 287 342.5 273.5z" class="b"/><path d="M376.2 252.6c0 0-6 6.6-4.3 12 1.7 5.4 4.9 6.5 7.1 3.8C381.1 265.6 376.2 255.8 376.2 252.6z" class="b"/><path d="M269 166c0 0-5.9-2.8-6.6-7.2C262.5 158.8 263.3 164.4 269 166z" class="b"/><path d="M137.2 45.3c0 0 4.2 4.2 5.3 26.5 0 0 2.1-9.5 0-16.4S140.3 45.9 137.2 45.3z" fill="#F5B117"/><path d="M255.9 187.6c0 0-3.8-4.4-8.1-2.2 0 0 2.5-2.3 7.6-0.3L255.9 187.6z" class="b"/><path d="M261.7 171.1l1.6 1.4 -1.5-0.5c0 0-17.1-9.6-22.1-10.5C239.7 161.4 257.3 167.1 261.7 171.1z" class="b"/><path d="M250.8 174.8c0 0-18-8.7-42.9-0.3 0 0 15.8-5.5 38.2-0.9L250.8 174.8z" class="b"/><path d="M266 171.7c0 0-2.4-6.8-17.2-14.9 0 0 10.1 6.3 14.5 12.5L266 171.7z" class="b"/><path d="M222 127.3c0 0-54.9-19.4-57.1-35.8 -2.2-16.4 11.4-46 33.6-57.2 0 0 7.3 0.2 1.7 3.7 0 0-10.3 9.7-25.5 30.2 -15.2 20.5 7.2 33 29.7 39.1C227 113.4 230.6 129.4 222 127.3z" class="b"/><path d="M195.8 32.9c0 0-12.4-0.7-20.1 0.6 -6.8 1.2-7.2 8.6-8 12.8 -0.7 4.2-7.9 2.2-8.1 7.6 -0.2 6.4-11.4 15.1 3.7 36.8 0 0-2.6-13.1 6.4-30.1C173.5 53.6 185.4 38.4 195.8 32.9z" class="b"/><path d="M62 94.5c-8.3 12-17 31.8-17 31.8 11.1 6.8 21.5 12.7 39.7 9.1 20.1-3.9 25.1 13.1 30 16.1 3.9 2.4 9.3 8.8 27.7 0.2 0 0 18.3-4.9 21.4-15.7 0 0 1.1-2.8 3.2-14.5 1.3-7.2 5-8.9 5-8.9s-11.5 3.3-32 5.4c-11.8 1.2-14.7-2.4-25.7-6.7 -4.6-1.8-7.5-11.8-20-15.2 0 0-4.1 0.6-11.3-3.2 -4.3-2.3-12.5-1.9-19.8 0.3L62 94.5z" class="b"/><path d="M42.8 132.5c6.5 4.6 13 6.8 17.8 9.1 15.5 7.8 29.8 1 36.2 6.3 14.8 12.3 27.5 9.2 27.5 9.2 -12.9-1.5-12.3-6.1-20.9-15 -8.6-8.9-20.1-5.4-20.1-5.4s15.3-1.4-6.8 0.7c-14 1.3-25.6-4.3-32.2-8.7L42.8 132.5z" class="b"/><path d="M143.8 37c0 0-1.4 3.6 3.9 7.3 4.8 3.4-0.8 40.2 8.1 46.8 8.9 6.6 7.8 13 17.7 16 0 0-25.6 5.6-43.1-17.4 0 0-11-8.2-11.7-15.5 -0.7-7.3-0.1 2.7-0.7-7.3 -0.5-7.5-3.6-13-2.6-21.1C115.4 45.9 128.3 39.5 143.8 37z" class="b"/><path d="M153.2 35.4c1.8 9.4 2.7 20.7 1.7 28.1 -1.8 12.8 2.1 21.3 5.7 26.1 3.6 4.8 4.4 10.3 4.4 10.3 -0.5-1.8-4.1-5.9-7.9-9.3 -3.8-3.5-6.9-21.4-5.7-32.6 1.3-11.2 0.3-13-2.9-15.2 -2.6-1.8-3.8-3.9-3.4-6.1C145.1 36.5 153.2 35.4 153.2 35.4z" class="b"/><path d="M128.2 162.1c0 0-5.8 12.6-12.5 4.1 0 0-7.1-2.7-14.1 9.5 -5.1 8.8-4.6 19-21.5 40.6 -2.3 2.9-11 10.2-2.3 14.5 0 0-16.4 0.9-8.4-22.5 1.5-4.3 5-6.4 7-21.6 2.1-15.3 7.2-10.6 14.6-16.8 7.5-6.2 5.7-8.5 13.5-9.6C110.5 159.3 113.2 165.6 128.2 162.1z" class="b"/><path d="M103.3 158.3c0 0-7.3 0.7-9.7 6.1 -2.4 5.4-13.9 8.2-13.9 8.2s-3.8 4.9-5.3 11.2c-1.6 6.3-1.3 12.2-5.1 18 0 0-3.5 9-3.2 14.9 0 0-4.1-15.1 2.3-29C74.6 173.8 74.2 159.2 103.3 158.3z" class="b"/><path d="M106 55.7c0 0-9.5 8.5-6.5 15 3 6.5-15.1 8 8.2 30.6 0 0 1.5 10.8 31.8 20.1 16.7 5.1 28.4-7 32.6-8.7 0 0-19.4-3.6-30.8-10 -11.3-6.4-6.5-5.3-12.4-10.7 -1.7-1.5-6.8-6.6-11.4-13.7C112.3 70.2 119 64.6 106 55.7z" class="b"/><path d="M174.5 113.9c0 0-4.3 2.3-6 7.1 0 0-1.1 6-0.4 11.5 0.7 5.5-11 21.5-26.5 23.8 -15.5 2.3-9.3 5.2-14.9 11.1 -5.6 5.9-8 3.4-8 3.4s-6.5-6.9-11 2.1c-5.3 10.6-5.1 49.3 38.2 58.8 0 0 9.2 7.9 15.8-1.9 6.7-9.8-0.6-14.1-5.4-20.8 -7.6-10.5-2.3-11.1-1.1-22.9 1.3-11.8 13-23.9 22.3-30 0 0 12.1-7.1 11.1-12.9 -1-5.8-8.3-13.6-12.4-20.4C175.1 120.6 172.6 118.4 174.5 113.9z" class="b"/><path d="M258.1 187.2c0 0 5.5 2.5 12.5 1.9C270.6 189.1 264.5 192.3 258.1 187.2z" class="a"/><path d="M269.1 198.5c0 0 9.2 6.9 16.9-0.1C286 198.4 278.9 204.6 269.1 198.5z" class="a"/><path d="M296.2 174.8c0 0 11.2 12 4 20.8C300.2 195.6 306.4 188.1 296.2 174.8z" class="a"/><path d="M277.1 208.3c0 0 14.2 8.7 22.7-2.4C299.8 206 294.7 216.1 277.1 208.3z" class="a"/><path d="M288 221.3c0 0 15.5 8.3 25.4-1.2C313.4 220.2 304.8 228.5 288 221.3z" class="a"/><path d="M313 185c0 0 10.1 6.3 9.9 22.8C322.9 207.8 323.2 194.3 313 185z" class="a"/><path d="M329.7 196.9c0 0 20.6 10.6 22.3 28.9C352.1 225.8 349 207.9 329.7 196.9z" class="a"/><path d="M341.5 210.2c0 0 8.7 7.9 6.1 18.8C347.6 229 348.5 219.3 341.5 210.2z" class="a"/><path d="M318.2 241.6c0 0 15.5 5 16.8-5.3C335 236.3 335.4 244.9 318.2 241.6z" class="a"/><path d="M367.3 234.1c0 0 6.1 12.8 0.7 21.3 0 0-3.5 4.9-8.2 1.1 0 0 7.9 4.6 9.5-8.8C369.3 247.7 369.6 239.6 367.3 234.1z" class="a"/><path d="M335.6 265.1c0 0 12.9 7.8 17.4-0.6C353.1 264.4 350.9 271 335.6 265.1z" class="a"/><path d="M229.6 266.5l6.5-0.9 8.2 2.4 -4.9 0c0 0-3.3 2.5-6.5-0.8L229.6 266.5z" class="a"/><path d="M275.5 291.6l9.8-2.1 10.2 1.2 -4.5 0.8c0 0-4.5 3.3-8.2 0L275.5 291.6z" class="a"/><path d="M275.9 115c0 0 11.9 12.2 23.4 14.2C299.3 129.2 283.8 127.3 275.9 115z" class="a"/><path d="M294.9 94.4c0 0 18.6 12.3 16.2 25.8C311.1 120.2 316.9 107.3 294.9 94.4z" class="a"/><path d="M246.5 112.3c0 0 1.7 10.2 8.3 15.1C254.7 127.4 245.3 123.4 246.5 112.3z" class="a"/><path d="M314.9 305.1c0 0 18.1-24 29.7-21.8C344.6 283.3 338.5 285.4 314.9 305.1z" class="a"/><path d="M274.8 233.4c0 0 11.3 22.5 27.7 23.4 0 0-15.9-4.3-24.7-21.6L274.8 233.4z" class="a"/><path d="M260.2 110.5c0 0 2.7 4.2 3.2 17C263.4 127.5 267.1 116.9 260.2 110.5z" class="a"/><path d="M131.5 78c0 0 12.6 23.1 44.2 30.6l1.9 1.4c0 0-34.7-6.7-47.2-32.7L131.5 78z" class="a"/><path d="M141 83.9c0 0 9.1 14.8 16.7 18.4l1.3 1.1c0 0-12-9-17-19.2L141 83.9z" class="a"/><path d="M97.7 103.2c0 0-0.6 28.5 68.6 28.6l0.3 0.9c0 0-65.9 1.9-69.5-28.6L97.7 103.2z" class="a"/><path d="M94.8 109.8c0 0 10.9 36.9 70.7 24l0.6 0.8c0 0-59.1 14.1-72-24.5L94.8 109.8z" class="a"/><path d="M116 143.5c0 0 29.5 10.8 47.7-3.2l0 0.9c0 0-18 13.7-48.4 2.8L116 143.5z" class="a"/><path d="M124.7 141.3c0 0 15.2 8.9 30.7 3.1 0 0-11.2 5.1-29.2-2.9L124.7 141.3z" class="a"/><path d="M126.8 73c0 0-1.4 0.9-0.3 2.3 1.1 1.4 6.5 2.2 7.4 2.5C133.9 77.8 137.2 75.8 126.8 73z" class="a"/><path d="M119.8 139.4c0 0-0.8 1.4 0.8 2.1 1.6 0.7 6.8-1.2 7.7-1.4C128.4 140.1 130.3 136.8 119.8 139.4z" class="a"/><path d="M139.3 80.4c0 0-0.6 3.2 4.5 3.1C148.8 83.5 142.7 80.8 139.3 80.4z" class="a"/><path d="M95.5 99.1c0 0-2.9 4.2-0.6 5.2 0 0 1.8 0.5 3-2.9C98 101.5 98.1 97.6 95.5 99.1z" class="a"/><path d="M93.5 107c0 0-3 1.3-3.1 3.8 0 0-0.3 2.3 5.1-2.6C95.5 108.2 95.3 106.6 93.5 107z" class="a"/><path d="M116.5 141.6c0 0-3.4-1.9-4.4 2.4C111.1 148.3 114 144.5 116.5 141.6z" class="a"/><path d="M53 114.3c0 0 29-2.1 44.2 9.1C97.2 123.4 86.6 106.8 53 114.3z" class="a"/><path d="M110.8 89.8c0 0 16.5 30.8 57.9 28.4l-0.8 1.3c0 0-40.3 2.9-58.1-29.3L110.8 89.8z" class="a"/><path d="M108.1 85.1c0 0-5.3 5 4.3 5.8C112.4 90.9 115.4 89.4 108.1 85.1z" class="a"/><path d="M141 159.3c0 0-30.4 22.1 12.5 67.7 0 0-35.7-24.4-20-59.1C133.5 167.8 134.9 160.9 141 159.3z" class="a"/><path d="M137 123.2c0 0 16.6 6 30.7-2.6 0 0-10.1 7.1-29.2 2.5L137 123.2z" class="a"/><path d="M137.9 118.6c0 0-3.3-1.9-4.4 2.4C132.5 125.3 135.4 121.5 137.9 118.6z" class="a"/><path d="M149.7 336.3c-0.3 0.1-0.8 0.2-1.2 0.2 -0.8 0-1.9-0.1-3.3-0.1 -1.1 0-2.2 0-3.3 0 -0.5 0-1.4 0.1-2.6 0.1 -1 0-2.1 0-3.2-0.1 -0.4 0-0.9 0-1.4 0 -0.7 0-1 0.1-0.9 0.1 -0.1 0-0.6-0.1-1.5-0.3 -0.2 0-0.4-0.1-0.6-0.2 -0.2-0.1-0.4-0.2-0.5-0.2 -0.2 0-0.4 0.1-0.6 0.3 -0.2 0.2-0.4 0.4-0.6 0.4 -0.4 0-0.9 0.1-1.7 0.3 -0.1 0.1-0.4 0.1-0.7 0.2 -0.7 0-1.2-0.2-1.4-0.5 -0.3-0.5-0.3-0.9-0.1-1.4 0.4-0.4 1.4-0.6 2.8-0.6 0.6 0 1.4 0.3 2.2 0.8 0.2-0.2 0.5-0.4 0.9-0.6 0.6-0.2 1.3-0.2 2.1-0.2 0.7 0.1 1.4 0.1 2 0.1 0.2 0 1.4 0 3.5-0.1 0.8 0 2.2 0.1 4 0.1 0.8 0 1.6 0 2.5 0 0.8 0 1.5-0.1 2.1-0.2 0.3-0.1 0.7 0 1.2 0.2 0.5 0.2 0.8 0.4 0.8 0.6 0.2 0.3 0.3 0.5 0.3 0.6C150.5 335.9 150.3 336.1 149.7 336.3zM149.1 316.5c0 0.1-0.1 0.3-0.4 0.6 -0.3 0.2-0.5 0.4-0.7 0.4 -0.4 0-1.1 0-2 0 -0.9-0.1-1.6-0.1-2-0.1l-3 0c-1.3 0-2.7 0-4.3 0.1 -1.6 0-2.7 0.1-3.5 0.1 -0.5 0-1-0.1-1.6-0.3 -0.2-0.1-0.5-0.1-0.9-0.1 -0.1 0-0.4 0.1-1 0.4 -0.6 0.3-1.1 0.4-1.5 0.4 -0.8-0.1-1.3-0.3-1.3-0.8 0-1 0.7-1.5 2.2-1.5 0.1 0 0.5 0.1 0.9 0.3 0.5 0.2 0.7 0.3 0.8 0.3 0.1 0 0.3 0 0.5-0.1 0.3-0.1 0.4-0.2 0.5-0.2 0.2-0.1 0.8-0.1 1.9-0.2l6.5-0.2 4.7 0c0.1 0 0.4 0 1-0.1 0.6-0.1 1-0.1 1.3-0.1 0.2 0 0.6 0.1 1 0.4C148.9 315.9 149.1 316.2 149.1 316.5zM148.1 325.3c0 0.1-0.1 0.3-0.4 0.6 -0.2 0.2-0.5 0.4-0.7 0.4 -0.4 0-1.1 0-2 0 -0.9 0-1.5 0-1.9 0l-2 0c-1.2 0-2.5 0-3.6 0.1 -1.1 0-2.1 0.1-2.9 0.1 -1 0-1.5-0.1-1.7-0.3 -0.1-0.2-0.3-0.3-0.7-0.3l-1 0.4c-0.7 0.4-1.2 0.5-1.6 0.5 -0.2 0-0.5-0.1-0.7-0.2 -0.3-0.2-0.5-0.4-0.5-0.6 0-1 0.7-1.5 2.1-1.5 0.2 0 0.5 0.1 0.9 0.3 0.5 0.2 0.8 0.3 0.8 0.3 0.1 0 0.3-0.1 0.5-0.2 0.3-0.1 0.4-0.1 0.5-0.1 0.7-0.2 1.3-0.3 2-0.3l8.8 0c0.1 0 0.4 0 1-0.1 0.6 0 1.1-0.1 1.3-0.1 0.2 0 0.6 0.1 1 0.4C147.9 324.7 148.1 324.9 148.1 325.3z" class="b"/><path d="M179.4 336.1c-0.3 0.1-0.8 0.2-1.2 0.2 -0.8 0-1.9-0.1-3.3-0.1 -1.1 0-2.2 0-3.3 0 -0.5 0-1.4 0.1-2.6 0.1 -1 0-2.1 0-3.2-0.1 -0.4 0-0.9 0-1.4 0 -0.7 0-1 0.1-0.9 0.1 -0.1 0-0.6-0.1-1.5-0.3 -0.2 0-0.4-0.1-0.6-0.2 -0.2-0.1-0.4-0.2-0.5-0.2 -0.2 0-0.4 0.1-0.6 0.3 -0.2 0.2-0.4 0.4-0.6 0.4 -0.4 0-0.9 0.1-1.7 0.3 -0.1 0.1-0.4 0.1-0.7 0.1 -0.7 0-1.2-0.2-1.4-0.5 -0.3-0.5-0.3-0.9-0.1-1.4 0.4-0.4 1.4-0.6 2.8-0.6 0.6 0 1.4 0.3 2.2 0.8 0.2-0.2 0.5-0.4 0.9-0.6 0.6-0.2 1.3-0.2 2.1-0.2 0.7 0.1 1.4 0.1 2 0.1 0.2 0 1.4 0 3.5-0.1 0.8 0 2.2 0.1 4 0.1 0.8 0 1.6 0 2.5 0 0.8 0 1.5-0.1 2.1-0.2 0.3-0.1 0.7 0 1.2 0.2 0.5 0.2 0.8 0.4 0.8 0.6 0.2 0.3 0.3 0.5 0.3 0.6C180.1 335.7 179.9 335.9 179.4 336.1zM178.7 316.3c0 0.1-0.1 0.3-0.4 0.6 -0.3 0.2-0.5 0.4-0.7 0.4 -0.4 0-1.1 0-2 0 -0.9-0.1-1.6-0.1-2-0.1l-3 0c-1.3 0-2.7 0-4.3 0.1 -1.6 0-2.7 0.1-3.5 0.1 -0.5 0-1-0.1-1.6-0.3 -0.2-0.1-0.5-0.1-0.9 0 -0.1 0-0.4 0.1-1 0.4 -0.6 0.3-1.1 0.4-1.5 0.4 -0.8-0.1-1.3-0.3-1.3-0.8 0-1 0.7-1.5 2.2-1.5 0.1 0 0.5 0.1 0.9 0.3 0.5 0.2 0.7 0.3 0.8 0.3 0.1 0 0.3 0 0.5-0.1 0.3-0.1 0.4-0.2 0.5-0.2 0.2-0.1 0.8-0.1 1.9-0.2l6.5-0.2 4.7 0c0.1 0 0.4 0 1-0.1 0.6-0.1 1-0.1 1.3-0.1 0.2 0 0.6 0.1 1 0.4C178.5 315.7 178.7 316 178.7 316.3zM177.8 325.1c0 0.1-0.1 0.3-0.4 0.6 -0.2 0.2-0.5 0.4-0.7 0.4 -0.4 0-1.1 0-2 0 -0.9 0-1.5 0-1.9 0l-2 0c-1.2 0-2.5 0-3.6 0.1 -1.1 0-2.1 0.1-2.9 0.1 -1 0-1.5-0.1-1.7-0.3 -0.1-0.2-0.3-0.3-0.7-0.3l-1 0.4c-0.7 0.4-1.2 0.5-1.6 0.5 -0.2 0-0.5-0.1-0.7-0.2 -0.3-0.2-0.5-0.4-0.5-0.6 0-1 0.7-1.5 2.1-1.5 0.2 0 0.5 0.1 0.9 0.3 0.5 0.2 0.8 0.3 0.8 0.3 0.1 0 0.3-0.1 0.5-0.2 0.3-0.1 0.4-0.1 0.5-0.2 0.7-0.2 1.3-0.3 2-0.3l8.8 0c0.1 0 0.4 0 1-0.1 0.6 0 1.1-0.1 1.3-0.1s0.6 0.1 1 0.4C177.5 324.5 177.8 324.8 177.8 325.1z" class="b"/><path d="M209.4 326.1c0 0.3-0.4 0.5-1.2 0.6 -0.2 0-1.1 0-2.7 0 -0.7 0-1.8 0-3.3-0.1 -1.5-0.1-2.6-0.1-3.4-0.1l-3.1 0c-0.4 0-0.9 0-1.7 0.1 -0.8 0.1-1.4 0.1-1.8 0.1l-0.5 0.1c-0.3 0-0.5 0.1-0.7 0.1 -0.1 0-0.4 0-0.7-0.1 -0.3-0.1-0.5-0.2-0.5-0.2l-0.7 0.3c-0.5 0.2-0.9 0.3-1.3 0.3 -1.2 0-1.8-0.3-1.8-0.9 0-0.7 0.5-1 1.6-1h0.4c1 0.3 1.6 0.5 1.7 0.5 0 0 0.1-0.1 0.3-0.2 0.2-0.2 0.4-0.3 0.6-0.3 0.1 0 0.2-0.1 0.5-0.1 1.3 0 2.3-0.2 3-0.7 0.9-0.6 1.3-1.6 1.3-3.1 0-0.4-0.1-0.7-0.4-0.7 -0.2-0.1-0.5-0.1-0.9-0.3 -0.1-0.1-0.3-0.2-0.5-0.3 -0.2-0.1-0.4-0.1-0.6-0.1 -1.5 0.5-2.5 0.8-3 0.8 -0.8 0-1.2-0.3-1.2-1 0-0.4 0.2-0.6 0.6-0.8 0.3-0.2 0.6-0.2 0.9-0.2 1 0 1.5 0 1.6 0 0.3 0.1 0.6 0.1 0.9 0.2l0.5 0.2c-0.1 0 0.1-0.1 0.5-0.3 0.3-0.2 0.7-0.2 1-0.2 0.8 0 1.4-0.3 1.7-0.7 0.4-0.4 0.5-1 0.5-1.6 0-0.9-0.2-1.3-0.6-1.3 -0.1 0-0.3-0.1-0.6-0.2 -0.3-0.1-0.6-0.1-0.7-0.1 0 0-0.4 0-1.3 0 -0.8 0-1.2 0-1.3 0 -0.4 0-0.7-0.1-1-0.2 -0.3-0.1-0.5-0.1-0.4-0.1 -0.2 0-0.4 0.1-0.7 0.2 -0.3 0.2-0.6 0.3-0.7 0.4 -0.4 0.1-0.8 0.1-1.2 0.2 -0.7 0-1-0.3-1.1-1 0-0.7 0.4-1 1.1-1 0.5 0 1 0.1 1.4 0.3 0.4 0.2 0.7 0.3 0.7 0.3 0 0 0.2-0.1 0.6-0.3 0.4-0.2 0.8-0.2 1.1-0.2 2.5 0 4.3-0.1 5.4-0.1l1.4 0.1 1.7 0 4.1-0.1c0.4 0 0.7 0 1.1 0 0.5 0 0.8 0 0.9 0 0.6 0 1 0.1 1.3 0.3 0.3 0.2 0.5 0.5 0.5 0.7 0 0.5-0.4 0.8-1.2 0.8 -0.7 0-1.5 0-2.5-0.1 -0.9-0.1-2-0.1-3.1 0 -0.7 0-1.2 0.1-1.5 0.2 -0.3 0.2-0.6 0.3-0.9 0.5 -0.6 0.3-1 1-1 2.1 0 0.3 0.3 0.6 0.8 0.9 0.5 0.3 1 0.4 1.5 0.3 0.2 0 0.6 0 1 0 0.8 0 1.5 0.1 2.2 0.3 0.9 0.3 1.4 0.7 1.6 1.4 0.1 0.9 0.2 1.8 0.3 2.6 0.1 1 0.3 1.5 0.7 1.8 0.1 0.1 0.3 0.1 0.6 0.1 0.1 0 0.2 0 0.5 0 0.2 0 0.4-0.1 0.5-0.1C208.9 324.9 209.4 325.3 209.4 326.1zM207 334.3c0 1.3-0.3 2.2-1.1 2.8 -0.6 0.5-1.6 0.8-3 0.7 -0.3 0-0.7 0-1.1 0 -0.6 0-0.9 0-1 0 -0.5 0-1.5 0-2.9-0.1 -0.3 0-0.7 0-1.2 0 0 0-0.2 0-0.4-0.1 -0.3 0-0.5 0-0.7 0 -0.3 0-0.6 0-1-0.1 -0.4-0.1-0.6-0.1-0.6-0.1 -0.1 0-0.3 0.1-0.5 0.2 -0.3 0.1-0.5 0.2-0.6 0.2l-0.8 0c-1.8 0-2.8-0.6-2.9-1.8l0-2.1c0-0.7 0.1-1.4 0.2-2.2 0.1-0.8 0.4-1.3 0.8-1.6 0.3-0.3 0.9-0.4 1.8-0.5 0.9-0.1 2.1-0.2 3.6-0.2l2.5 0c1.3 0 2.4 0.1 3.3 0.2 0.3 0 0.9 0 1.8 0.1 1.8 0 2.9 0.3 3.4 0.9C206.7 330.9 207 332.2 207 334.3zM205.2 333.9c0-0.9-0.2-1.5-0.5-1.9 -0.5-0.6-1.4-0.9-2.9-0.9 -2.6-0.1-3.7-0.1-3.5-0.1 -0.1 0-0.6 0-1.5-0.1 -0.9 0-1.5 0-1.7 0 -1.9 0-3.2 0.3-3.6 1 -0.5 0.6-0.8 1.4-0.8 2.4 0 1.2 0.5 1.8 1.4 1.9 0.4 0 1 0.2 1.6 0.6 0.1 0 0.3 0 0.7-0.2 0.6-0.2 1.2-0.3 1.9-0.2 -0.1 0 0.3 0 1.2-0.1 0.8-0.1 1.2-0.1 1.4 0 0.5 0.1 1.3 0.1 2.6-0.1 0.9 0 1.6-0.1 2.2-0.4C204.8 335.3 205.2 334.7 205.2 333.9zM204 322.9c0-1.1-0.3-1.9-0.9-2.2 -0.4-0.2-1.2-0.3-2.3-0.3 -0.2 0-0.4 0-0.7 0 -0.3 0-0.6-0.1-0.7-0.1 -0.7 0-1.3 0.3-1.9 0.9 -0.6 0.6-0.9 1.2-0.9 2 0 0.9 0.4 1.5 1.2 1.7 0.6 0.2 1.3 0.2 2.1 0.2 1.9-0.2 2.9-0.2 2.9-0.2C203.6 324.5 204 323.9 204 322.9z" class="b"/><path d="M222.5 319.7c0 0.7 0 1.2-0.1 1.3 0 0.2-0.3 0.6-0.9 1.4 -0.3 0.5-1 1.1-2.1 1.9 -0.4 0.3-1 0.7-1.8 1.2 -0.1 0-0.3 0.1-0.6 0.2 -0.1 0-0.3 0.1-0.4 0.3 -0.1 0.1-0.1 0.3-0.1 0.7 0 0.4 0.2 0.8 0.5 1.2 0.4 0.4 0.7 0.5 1.1 0.5 1.2 0.1 1.9-0.4 2.2-1.3 0-0.4 0-0.9 0-1.3 0-0.6 0.3-0.9 0.7-0.9 0.3 0 0.5 0.3 0.7 0.9 0.1 0.5 0.2 0.9 0.2 1.4 0 0.6-0.1 1.4-0.3 2.3 -0.2 0.9-0.4 1.6-0.7 2.1 0 0-0.2 0.2-0.4 0.4 -0.1 0-0.1 0.1-0.2 0.3 0 0.2 0 0.4-0.1 0.5 0 0-0.3 0.4-0.8 1.2 -0.3 0.4-0.6 0.9-1.1 1.5 -0.2 0.2-0.4 0.4-0.7 0.6 -0.4 0.3-0.8 0.5-1.2 0.7 -0.2 0.2-0.7 0.4-1.3 0.7 -0.5 0.1-0.7-0.2-0.7-0.8 0-0.3 0-0.5 0.1-0.7 0-0.1 0.4-0.4 1.1-0.8 0.3-0.2 0.8-0.6 1.5-1 0.2-0.3 0.7-0.8 1.5-1.6l0.6-0.4c0.3-0.2 0.5-0.4 0.5-0.5 0-0.3-0.1-0.6-0.2-0.9 -0.1-0.3-0.2-0.5-0.3-0.5 -0.7 0-1.4-0.1-1.9-0.2 -1.4-0.4-2.1-0.9-2.1-1.5 -0.1-0.2-0.3-0.5-0.4-0.9 -0.1-0.8 0.1-1.4 0.6-1.9 0.1 0 0.3-0.1 0.5-0.1 0.2-0.2 0.5-0.6 1-1.3 0.1-0.1 0.3-0.3 0.7-0.6 0.2-0.2 0.4-0.4 0.4-0.6 0-0.1 0-0.2-0.2-0.3 -0.2-0.1-0.4-0.3-0.5-0.3 -0.4-0.3-0.8-0.6-1.1-0.9 -0.4-0.3-0.5-0.7-0.5-1.2 0-0.8 0.4-1.6 1-2.2 0.3-0.3 0.8-0.5 1.5-0.9 0.2-0.1 0.2-0.2 0.2-0.3 0-0.2 0-0.3 0-0.2 0.2-0.3 0.4-0.9 0.7-1.6 0-0.3 0-0.7 0-1.2 0.1-0.2 0.3-0.4 0.6-0.4 0.3 0 0.6 0.1 0.7 0.2 0.1 0.1 0.3 0.3 0.5 0.6 0.2 0.3 0.3 0.5 0.3 0.7 0 0.4-0.3 1-0.9 1.6 -0.3 0.4-0.6 0.5-0.8 0.6 -0.3 0-0.5 0-0.7 0.1 -0.4 0.1-0.4 0.2-0.2 0.4 0.1 0 0.1 0.1 0.1 0.1 0 0.2-0.2 0.4-0.5 0.9 -0.3 0.3-0.5 0.5-0.5 0.6 0 0.1 0.1 0.3 0.3 0.8 0.2 0.5 0.3 0.7 0.4 0.8 0 0 0.3 0.1 0.7 0.2 0.4 0.1 0.7 0.1 0.8 0.1 0.3 0 0.5-0.2 0.7-0.7 0.2-0.3 0.3-0.6 0.2-0.8 0 0-0.1-0.2-0.2-0.5 -0.1-0.3-0.1-0.5-0.1-0.5 0-0.5 0.2-0.7 0.6-0.7 0.4 0 0.7 0.1 0.9 0.4C222.3 318.9 222.5 319.2 222.5 319.7zM231.9 333.7c0 0.2-0.1 0.4-0.3 0.6 -0.2 0.2-0.4 0.3-0.6 0.3 -0.4 0-0.8-0.2-1.3-0.8 -0.5-0.5-0.8-0.7-0.8-0.7 -0.1 0-0.2 0-0.3 0.1 -0.2 0-0.3 0-0.4 0 -0.1 0-0.3 0.2-0.6 0.6 -0.1 0.2-0.4 0.4-0.9 0.6 -0.4 0.2-1.2 0.4-2.3 0.9 -0.4 0.2-0.9 0.4-1.6 0.7 -0.6 0.3-1 0.4-1.3 0.4 -0.5 0-0.7-0.2-0.7-0.7 0-0.3 0.1-0.5 0.1-0.6 0.1 0 0.5-0.3 1.3-0.8 0.9-0.5 1.3-0.8 1.4-1.1 0-0.3 0.1-0.7 0.1-1.5 0-1.5 0.2-2.2 0.5-2.2 0.2 0 0.5 0.2 0.7 0.6 0.2 0.3 0.3 0.6 0.3 0.8 0 0 0 0.1-0.1 0.3 -0.1 0.2-0.1 0.3-0.1 0.4 0 0.4 0.1 0.7 0.4 1 0.2 0.2 0.4 0.3 0.7 0.3 0.3 0 0.6-0.1 0.9-0.2 0.3-0.2 0.6-0.3 0.7-0.5 0.1-0.2 0.2-0.4 0.1-0.8 0-0.2 0-0.5-0.1-0.9 -0.1-0.1-0.2-0.4-0.3-0.8 0-0.4 0.1-0.7 0.5-0.7 0.4 0 0.8 0.2 1 0.6 0.2 0.2 0.4 0.4 0.7 0.6 0.2 0.4 0.6 0.9 1.1 1.5 0.2 0.3 0.6 0.6 0.9 1C231.8 333.2 231.9 333.4 231.9 333.7zM231 320.6c0 0.1 0 0.3-0.1 0.7 -0.1 0.4-0.1 0.8-0.1 1.2 0 0.1 0 0.6 0.1 1.3l0.1 1c0 0.4-0.1 0.8-0.3 1.2 -0.2 0.2-0.4 0.4-0.6 0.6 -0.3 0.7-0.7 1-1.2 1 -0.6 0-1.1-0.1-1.6-0.3 -0.2-0.1-0.4-0.2-0.7-0.3 -0.1 0-0.1 0.1-0.2 0.3 -0.1 0.1-0.2 0.2-0.2 0.2 -0.1 0.1-0.3 0.1-0.6 0.3 -0.2 0-0.4 0.2-0.7 0.4 -0.1 0.3-0.1 0.5-0.2 0.7 -0.1 0.4-0.3 0.5-0.6 0.5 -0.2 0-0.4-0.2-0.5-0.5 0 0 0-0.3-0.1-0.8 0-1 0-2.5-0.1-4.6l0-2.3c0 0 0-0.1 0.1-0.5 0.1-0.4 0.1-0.6 0-0.8 -0.1-0.3-0.1-0.6-0.1-0.9 0-1.3 0.7-2 2.1-1.9 0.2 0 0.4-0.1 0.6-0.3 0.2-0.2 0.3-0.4 0.3-0.6 0-0.4 0-0.7-0.1-0.9 -0.1-0.2-0.2-0.6-0.3-1 0-0.3 0.1-0.6 0.3-1 0.3-0.4 0.6-0.6 0.9-0.6 0.2 0 0.5 0.2 0.7 0.5 0.2 0.3 0.4 0.6 0.3 0.8 0 0.1-0.1 0.3-0.2 0.7 0 0.2-0.1 0.4-0.2 0.6 -0.1 0.2-0.1 0.3-0.1 0.4 0.1 0.2 0.1 0.4 0.2 0.7 0.1 0.3 0.2 0.5 0.3 0.5 0 0 0.2 0 0.4 0.1 0.3 0.1 0.7 0.2 1.2 0.5 0.6 0.3 0.9 0.8 0.9 1.4 0 0.1 0 0.4 0 0.9C231 320.1 231 320.3 231 320.6zM229.5 324.7c0-0.4 0-0.6-0.1-0.7 -0.4-0.6-0.7-0.9-1.1-1 -0.3-0.1-0.5-0.2-0.8-0.2 -0.2-0.1-0.4-0.2-0.5-0.2 -0.3 0-0.5 0-0.6 0.1 -0.2 0.3-0.5 0.6-1.1 1 -0.4 0.3-0.7 0.6-0.7 1.1 0 0.2 0.3 0.5 1 0.9 0.5 0.3 0.9 0.5 1.2 0.6 0 0 0.1 0 0.3-0.1 0.2-0.1 0.4-0.1 0.5-0.1 0.2 0 0.5-0.1 0.7-0.1 0.5-0.3 0.8-0.5 0.9-0.6C229.5 325.3 229.5 325.1 229.5 324.7zM229.7 320.4c0-0.4-0.2-0.8-0.7-1.2 -0.4-0.4-0.8-0.6-1.1-0.6 -0.8 0-1.2 0-1.4 0 -0.2 0.1-0.5 0.2-0.9 0.4 -0.5 0.5-0.8 0.9-0.8 1.4 0 0.5 0 0.8 0.1 0.9 0.1 0.2 0.3 0.3 0.6 0.4 0.2 0 0.4 0 0.5 0.1 0.2 0.1 0.4 0.3 0.7 0.4 0 0 0.1-0.1 0.2-0.2 0.1-0.1 0.4-0.2 0.8-0.3l0.9 0c0.2 0 0.4-0.1 0.6-0.4C229.5 320.8 229.7 320.5 229.7 320.4zM239.6 329.4c0 0.8-0.2 1.4-0.4 1.8l-0.4 0.5c-0.1 0.6-0.5 1-1.2 1.4 -0.4 0.2-0.8 0.4-1.4 0.5 -0.6 0.1-0.9 0.2-1.2 0.3 -0.3 0.1-0.6 0.4-0.8 0.9 0 0.2 0 0.7 0 1.4 0 0.9-0.2 1.4-0.6 1.4 -0.3 0-0.5-0.2-0.7-0.6 -0.2-0.4-0.3-0.7-0.3-1.1l0-3.6 -0.1-2.5c0-0.3 0-0.8 0.1-1.7 0-0.2 0-0.3 0.1-0.4 0.1-0.1 0.1-0.2 0.1-0.2 0 0-0.1-0.2-0.2-0.5 -0.1-0.3-0.1-0.5-0.1-0.6 -0.1-0.5-0.2-1-0.1-1.7 0-1.4 0.1-2.8 0.1-4.2 0.1-0.3 0.2-0.7 0.3-1.3 0-0.3-0.1-0.6-0.3-0.8 -0.1-0.3-0.2-0.5-0.2-0.6 0-0.3 0-0.6-0.1-1.1 0-0.4 0-0.8 0-1 0-1.2 0.3-1.8 1-1.9 0 0 0.1 0.1 0.4 0.2 0.2 0.1 0.4 0.2 0.6 0.3 0 0 0.3 0 1 0.1 1.2 0.1 2.2 0.7 3.1 1.5 0.4 0.4 0.6 1.1 0.6 1.9 0 0.2-0.1 0.5-0.4 1 -0.2 0.5-0.4 0.8-0.4 0.9 0 0 0 0.1 0 0.3 0.1 0.1 0.1 0.2 0.1 0.2 0 0.6-0.4 1.2-1.2 1.9 -0.8 0.7-1.1 1-1.1 1.1 0 0.1 0.1 0.3 0.2 0.4l0.4 0.3c0.3 0.3 0.5 0.6 0.6 1.1 0.1 0.2 0.3 0.4 0.7 0.6 0.3 0.1 0.6 0.4 0.8 0.8 0.1 0.2 0.3 0.5 0.3 0.9C239.5 328.5 239.6 329.2 239.6 329.4zM237.9 319.4c-0.1-0.2-0.3-0.6-0.5-1 0-0.3 0-0.6-0.1-1.1 -0.3-0.9-1-1.3-2-1.2 -0.2 0-0.5 0.2-0.8 0.5 -0.2 0.4-0.3 0.7-0.3 1.1 0 0.2-0.1 0.5-0.3 0.7 -0.2 0.3-0.3 0.4-0.3 0.5 0.1 0.1 0.2 0.3 0.3 0.7 0 0.5 0.1 1.1 0.3 1.9 0 0.1 0.1 0.1 0.2 0.1 0.6 0 1.2-0.1 1.7-0.4 0.1 0 0.5-0.4 1.2-1 0.1-0.1 0.2-0.2 0.4-0.3C237.8 319.8 237.9 319.6 237.9 319.4zM237.8 330.3c0-0.3 0-0.8 0-1.5 0-0.1 0-0.4-0.1-0.9 -0.1-0.4-0.1-0.8-0.1-1 0-0.3-0.1-0.6-0.3-0.9 -0.2-0.3-0.5-0.5-0.7-0.6 -0.7-0.2-1.3-0.3-1.7-0.3 -0.4 0-0.6 0.2-0.7 0.6 0 0.4-0.1 0.8-0.1 1.1 0 0.1-0.1 0.2-0.2 0.4 -0.1 0.1-0.2 0.2-0.2 0.3 0.4 0.3 0.7 0.6 0.7 0.9 0 0.2 0 0.5-0.1 0.7 0 0.3 0 0.5 0 0.7l0 1.2c0.2 0.4 0.6 0.6 1.2 0.6 0.2 0 0.5-0.1 1-0.2C237.4 331.2 237.8 330.9 237.8 330.3z" class="b"/><path d="M269 334.8c0 0.3-0.3 0.8-1 1.4 -0.7 0.6-1.2 1-1.6 1.1 -1.2 0.4-2.2 0.6-3.1 0.6 -6.8 0-10.3-1-10.5-3 0-0.6-0.1-1.4-0.1-2.5 0-0.4 0-0.6-0.1-0.7 -0.1-0.2-0.5-0.3-1.1-0.3l-0.2 0c-0.1 0-0.3 0-0.4 0 -0.2 0-0.4 0-0.6-0.1 -0.2-0.1-0.3-0.2-0.4-0.2 -0.2 0-0.5 0.1-0.9 0.4 -0.2 0.1-0.6 0.3-1.3 0.4 -0.7 0.1-1.2 0.1-1.5 0.1 -0.3 0-0.5-0.1-0.6-0.3 -0.1-0.2-0.2-0.4-0.2-0.6 0-0.7 0.7-1.1 2.2-1.1 0.9 0 1.5 0.2 1.8 0.5 0 0 0.2 0 0.5 0 0.1 0 0.3-0.1 0.5-0.3 0.2-0.2 0.5-0.3 0.7-0.4 0.3 0 0.6-0.1 0.9-0.2 0.4-0.1 0.7-0.5 0.8-1.1 0-0.2 0-0.4-0.1-0.4 -0.1 0-0.1-0.2-0.1-0.4 0-0.5 0.2-1 0.5-1.6 0.1-0.2 0.3-0.3 0.5-0.3 0.2 0 0.5 0.1 0.6 0.3 0.2 0.2 0.3 0.4 0.3 0.7 -0.1 0.6-0.2 1-0.2 1.1 0 0.6 0.2 1 0.6 1.2 0.2 0.1 0.7 0.1 1.4 0.1 0.6 0 2.9-0.2 6.8-0.7 0.9-0.1 2.1-0.3 3.4-0.4 1.4 0 2.1 0.2 2.1 0.7 0 0.2-0.2 0.5-0.5 0.7 -0.3 0.2-0.7 0.4-1.2 0.4 -0.6 0-1.4 0-2.5 0.1 -2.5 0.3-4.6 0.5-6.4 0.5 -0.4 0-1.2 0.1-2.4 0.2 -0.3 0.1-0.6 0.3-0.9 0.5 -0.4 0.4-0.5 0.7-0.5 1.1 0 0.6 0.1 1.1 0.1 1.4 0.2 0.6 1 1 2.3 1.3 1.2 0.3 2.9 0.5 4.9 0.5 1.3 0 2.2 0 2.6-0.1 0.7-0.2 1.5-0.6 2.4-1.2 0.8-0.6 1.3-0.9 1.5-0.9C268.7 333.8 269 334.2 269 334.8zM266.2 321.5c0.1 1 0 1.9-0.4 2.7 -0.4 0.8-1.4 1.2-2.9 1.2 -2.4 0-4.3 0-5.6-0.1l-2.1-0.1c0 0-0.3 0-0.8 0 -0.5 0-0.7 0-0.7 0 -0.2 0-0.5 0-0.9-0.1 -0.4-0.1-0.6-0.1-0.6-0.1 -0.1 0-0.4 0.1-0.8 0.1l-0.6 0.2c-0.2 0-0.5 0-0.9 0 -0.4 0-0.7-0.1-0.9-0.1 -1.3 0-1.9-1.6-2-4.9 0-1 0.1-1.8 0.2-2.5 0-0.2 0.1-0.3 0.3-0.5 0.2-0.2 0.3-0.3 0.3-0.4 0-0.1 0-0.2-0.1-0.4 0.1-0.7 0.6-1.2 1.5-1.4 0.1 0 0.9-0.1 2.2-0.2 0.7-0.1 1.5-0.1 2.6-0.1 0.3 0 0.6-0.1 0.8-0.4 0.3-0.3 0.5-0.5 0.5-0.8 -0.1-0.3-0.2-0.7-0.2-1.3 0.1-0.5 0.4-0.8 0.9-0.8 0.2 0 0.5 0.1 0.7 0.3 0.4 0.1 0.7 0.4 0.7 0.8 0 0.4-0.1 0.8-0.3 1 -0.2 0.3-0.3 0.4-0.3 0.4 0 0.1 0 0.3 0.1 0.4 0.1 0.1 0.3 0.2 0.4 0.2l1.2 0c0.3 0 0.7 0.1 1.2 0.3 0.2 0.2 0.4 0.3 0.6 0.3 -0.2 0 0.1-0.1 0.7-0.2 0.2 0 0.6-0.1 1.2-0.1 0.6 0 1.1 0.1 1.4 0.2l0.8 0.3c0.6 0.2 1 0.8 1.5 1.8 0.1 0.2 0.1 0.4 0.1 0.8 0 0.5-0.1 0.7-0.1 0.6C266.2 319.9 266.2 320.8 266.2 321.5zM264.6 319.6c0-0.7 0-1.2-0.1-1.5 0 0-0.1-0.2-0.3-0.6 -0.3-0.6-0.9-0.8-2-0.8 -0.1 0-0.2-0.1-0.4-0.3 -0.2-0.2-0.5-0.3-0.7-0.3 -0.2 0-0.3 0-0.5 0.1 -0.1 0.1-0.3 0.2-0.7 0.3 -0.1 0-0.4 0-0.7 0 -0.3 0-0.5-0.1-0.5-0.1l-5.6 0c-1.2 0-1.9 0.1-2.1 0.1 -0.2 0-0.4 0.1-0.8 0.2 -0.3 0.1-0.5 0.1-0.7 0.1 -0.1 0-0.3 0.1-0.6 0.2 -0.3 0.1-0.4 0.1-0.5 0.1 -0.3 0-0.3 0.2-0.2 0.4 0.1 0.2 0.1 0.5 0.1 0.8 0 0.3 0 0.5 0.1 0.6 0.1 0.3 0.6 0.4 1.4 0.4 0 0 0.1 0 0.3 0 0.2 0 0.4 0 0.5 0 0.5 0 0.9 0.1 1.2 0.2 0.4 0.2 0.5 0.2 0.6 0.2 0.2-0.2 0.7-0.3 1.5-0.5l3.1 0c0.4 0 1.4 0 3-0.1 1.3 0 2.1 0.1 2.3 0.4 0.2 0.2 0.3 0.5 0.3 0.8 0 0.2-0.3 0.4-0.8 0.6 -0.4 0.1-0.7 0.2-0.9 0.2l-3.2-0.1 -2.1-0.1c-0.1 0-0.8 0-2.1 0 -0.3-0.1-0.5-0.2-0.7-0.3 -0.2-0.1-0.3-0.2-0.4-0.2 -0.1 0-0.2 0.1-0.3 0.2 -0.2 0.1-0.4 0.2-0.6 0.2 -0.2 0.1-0.3 0.1-0.5 0.1 -0.4 0-0.8 0.1-1.3 0.2 -0.8 0.2-1.2 0.5-1.2 0.9 0 0.8 0.4 1.4 1.1 1.8 0.6 0.1 1.2 0.3 1.8 0.5 0.5 0.2 0.7 0.3 0.6 0.3 0.1-0.1 0.3-0.1 0.4-0.2 0.5-0.1 1-0.2 1.6-0.2 0 0 0.4 0 1.2 0 0.8 0 1.5 0 2.1 0 1 0 2.2 0 3.4 0 0.3 0 0.9-0.1 1.7-0.3 1.1-0.2 1.6-0.6 1.6-1.3C264.3 322.1 264.4 321.2 264.6 319.6z" class="b"/></svg>
